<?xml version="1.0" encoding="UTF-8" standalone="no"?>
<!-- Created with Inkscape (http://www.inkscape.org/) -->

<svg
   xmlns:osb="http://www.openswatchbook.org/uri/2009/osb"
   xmlns:dc="http://purl.org/dc/elements/1.1/"
   xmlns:cc="http://creativecommons.org/ns#"
   xmlns:rdf="http://www.w3.org/1999/02/22-rdf-syntax-ns#"
   xmlns:svg="http://www.w3.org/2000/svg"
   xmlns="http://www.w3.org/2000/svg"
   xmlns:xlink="http://www.w3.org/1999/xlink"
   xmlns:sodipodi="http://sodipodi.sourceforge.net/DTD/sodipodi-0.dtd"
   xmlns:inkscape="http://www.inkscape.org/namespaces/inkscape"
   width="210mm"
   height="297mm"
   viewBox="0 0 744.09448819 1052.3622047"
   id="svg2"
   version="1.1"
   inkscape:version="0.91 r13725"
   sodipodi:docname="auger_fluoreces.svg"
   inkscape:export-filename="C:\Users\nano\thesis\Msc Thesis\Images\text6418.png"
   inkscape:export-xdpi="90"
   inkscape:export-ydpi="90">
  <defs
     id="defs4">
    <marker
       inkscape:isstock="true"
       style="overflow:visible;"
       id="marker6165"
       refX="0.0"
       refY="0.0"
       orient="auto"
       inkscape:stockid="Arrow2Lend">
      <path
         transform="scale(1.1) rotate(180) translate(1,0)"
         d="M 8.7185878,4.0337352 L -2.2072895,0.016013256 L 8.7185884,-4.0017078 C 6.9730900,-1.6296469 6.9831476,1.6157441 8.7185878,4.0337352 z "
         style="fill-rule:evenodd;stroke-width:0.625;stroke-linejoin:round;stroke:#b80000;stroke-opacity:1;fill:#d30000;fill-opacity:1"
         id="path6167" />
    </marker>
    <marker
       inkscape:stockid="Arrow2Lend"
       orient="auto"
       refY="0.0"
       refX="0.0"
       id="Arrow2Lend"
       style="overflow:visible;"
       inkscape:isstock="true"
       inkscape:collect="always">
      <path
         id="path4163"
         style="fill-rule:evenodd;stroke-width:0.625;stroke-linejoin:round;stroke:#0065a6;stroke-opacity:1;fill:#006a9e;fill-opacity:1"
         d="M 8.7185878,4.0337352 L -2.2072895,0.016013256 L 8.7185884,-4.0017078 C 6.9730900,-1.6296469 6.9831476,1.6157441 8.7185878,4.0337352 z "
         transform="scale(1.1) rotate(180) translate(1,0)" />
    </marker>
    <linearGradient
       id="linearGradient4945"
       osb:paint="solid">
      <stop
         style="stop-color:#0134ff;stop-opacity:1;"
         offset="0"
         id="stop4947" />
    </linearGradient>
    <marker
       style="overflow:visible"
       id="DistanceStart"
       refX="0.0"
       refY="0.0"
       orient="auto"
       inkscape:stockid="DistanceStart"
       inkscape:isstock="true">
      <g
         id="g2300"
         style="stroke:#000000;stroke-opacity:1;fill:#000000;fill-opacity:1">
        <path
           style="fill:#000000;stroke:#000000;stroke-width:1.15;stroke-linecap:square;stroke-opacity:1;fill-opacity:1"
           d="M 0,0 L 2,0"
           id="path2306" />
        <path
           style="fill:#000000;fill-rule:evenodd;stroke:#000000;stroke-opacity:1;fill-opacity:1"
           d="M 0,0 L 13,4 L 9,0 13,-4 L 0,0 z "
           id="path2302" />
        <path
           style="fill:#000000;stroke:#000000;stroke-width:1;stroke-linecap:square;stroke-opacity:1;fill-opacity:1"
           d="M 0,-4 L 0,40"
           id="path2304" />
      </g>
    </marker>
    <marker
       style="overflow:visible"
       id="DistanceEnd"
       refX="0.0"
       refY="0.0"
       orient="auto"
       inkscape:stockid="DistanceEnd"
       inkscape:isstock="true">
      <g
         id="g2301"
         style="stroke:#000000;stroke-opacity:1;fill:#000000;fill-opacity:1">
        <path
           style="fill:#000000;stroke:#000000;stroke-width:1.15;stroke-linecap:square;stroke-opacity:1;fill-opacity:1"
           d="M 0,0 L -2,0"
           id="path2316" />
        <path
           style="fill:#000000;fill-rule:evenodd;stroke:#000000;stroke-opacity:1;fill-opacity:1"
           d="M 0,0 L -13,4 L -9,0 -13,-4 L 0,0 z "
           id="path2312" />
        <path
           style="fill:#000000;stroke:#000000;stroke-width:1;stroke-linecap:square;stroke-opacity:1;fill-opacity:1"
           d="M 0,-4 L 0,40"
           id="path2314" />
      </g>
    </marker>
    <marker
       inkscape:stockid="Tail"
       orient="auto"
       refY="0.0"
       refX="0.0"
       id="marker4478"
       style="overflow:visible"
       inkscape:isstock="true">
      <g
         id="g4480"
         transform="scale(-1.2)"
         style="stroke:#000000;stroke-opacity:1;fill:#000000;fill-opacity:1">
        <path
           id="path4482"
           d="M -3.8048674,-3.9585227 L 0.54352094,0"
           style="fill:#000000;fill-rule:evenodd;stroke:#000000;stroke-width:0.8;stroke-linecap:round;stroke-opacity:1;fill-opacity:1" />
        <path
           id="path4484"
           d="M -1.2866832,-3.9585227 L 3.0617053,0"
           style="fill:#000000;fill-rule:evenodd;stroke:#000000;stroke-width:0.8;stroke-linecap:round;stroke-opacity:1;fill-opacity:1" />
        <path
           id="path4486"
           d="M 1.3053582,-3.9585227 L 5.6537466,0"
           style="fill:#000000;fill-rule:evenodd;stroke:#000000;stroke-width:0.8;stroke-linecap:round;stroke-opacity:1;fill-opacity:1" />
        <path
           id="path4488"
           d="M -3.8048674,4.1775838 L 0.54352094,0.21974226"
           style="fill:#000000;fill-rule:evenodd;stroke:#000000;stroke-width:0.8;stroke-linecap:round;stroke-opacity:1;fill-opacity:1" />
        <path
           id="path4490"
           d="M -1.2866832,4.1775838 L 3.0617053,0.21974226"
           style="fill:#000000;fill-rule:evenodd;stroke:#000000;stroke-width:0.8;stroke-linecap:round;stroke-opacity:1;fill-opacity:1" />
        <path
           id="path4492"
           d="M 1.3053582,4.1775838 L 5.6537466,0.21974226"
           style="fill:#000000;fill-rule:evenodd;stroke:#000000;stroke-width:0.8;stroke-linecap:round;stroke-opacity:1;fill-opacity:1" />
      </g>
    </marker>
    <marker
       inkscape:stockid="Tail"
       orient="auto"
       refY="0.0"
       refX="0.0"
       id="Tail"
       style="overflow:visible"
       inkscape:isstock="true">
      <g
         id="g4178"
         transform="scale(-1.2)"
         style="stroke:#000000;stroke-opacity:1;fill:#000000;fill-opacity:1">
        <path
           id="path4180"
           d="M -3.8048674,-3.9585227 L 0.54352094,0"
           style="fill:#000000;fill-rule:evenodd;stroke:#000000;stroke-width:0.8;stroke-linecap:round;stroke-opacity:1;fill-opacity:1" />
        <path
           id="path4182"
           d="M -1.2866832,-3.9585227 L 3.0617053,0"
           style="fill:#000000;fill-rule:evenodd;stroke:#000000;stroke-width:0.8;stroke-linecap:round;stroke-opacity:1;fill-opacity:1" />
        <path
           id="path4184"
           d="M 1.3053582,-3.9585227 L 5.6537466,0"
           style="fill:#000000;fill-rule:evenodd;stroke:#000000;stroke-width:0.8;stroke-linecap:round;stroke-opacity:1;fill-opacity:1" />
        <path
           id="path4186"
           d="M -3.8048674,4.1775838 L 0.54352094,0.21974226"
           style="fill:#000000;fill-rule:evenodd;stroke:#000000;stroke-width:0.8;stroke-linecap:round;stroke-opacity:1;fill-opacity:1" />
        <path
           id="path4188"
           d="M -1.2866832,4.1775838 L 3.0617053,0.21974226"
           style="fill:#000000;fill-rule:evenodd;stroke:#000000;stroke-width:0.8;stroke-linecap:round;stroke-opacity:1;fill-opacity:1" />
        <path
           id="path4190"
           d="M 1.3053582,4.1775838 L 5.6537466,0.21974226"
           style="fill:#000000;fill-rule:evenodd;stroke:#000000;stroke-width:0.8;stroke-linecap:round;stroke-opacity:1;fill-opacity:1" />
      </g>
    </marker>
    <linearGradient
       inkscape:collect="always"
       xlink:href="#linearGradient4945"
       id="linearGradient4949"
       x1="195.21429"
       y1="73.790771"
       x2="214.78571"
       y2="73.790771"
       gradientUnits="userSpaceOnUse"
       gradientTransform="matrix(0.78323699,0,0,0.78323699,-6.8492989,249.56653)" />
    <linearGradient
       inkscape:collect="always"
       xlink:href="#linearGradient4945"
       id="linearGradient4949-6"
       x1="195.21429"
       y1="73.790771"
       x2="214.78571"
       y2="73.790771"
       gradientUnits="userSpaceOnUse"
       gradientTransform="matrix(0.78323699,0,0,0.78323699,-28.992148,249.56652)" />
    <linearGradient
       inkscape:collect="always"
       xlink:href="#linearGradient4945"
       id="linearGradient4949-6-7"
       x1="195.21429"
       y1="73.790771"
       x2="214.78571"
       y2="73.790771"
       gradientUnits="userSpaceOnUse"
       gradientTransform="matrix(0.78323699,0,0,0.78323699,-40.635005,209.85222)" />
    <linearGradient
       inkscape:collect="always"
       xlink:href="#linearGradient4945"
       id="linearGradient4949-6-4"
       x1="195.21429"
       y1="73.790771"
       x2="214.78571"
       y2="73.790771"
       gradientUnits="userSpaceOnUse"
       gradientTransform="matrix(0.78323699,0,0,0.78323699,3.9364391,209.85223)" />
    <linearGradient
       inkscape:collect="always"
       xlink:href="#linearGradient4945"
       id="linearGradient4949-0"
       x1="195.21429"
       y1="73.790771"
       x2="214.78571"
       y2="73.790771"
       gradientUnits="userSpaceOnUse"
       gradientTransform="matrix(0.78323699,0,0,0.78323699,-61.920726,165.28081)" />
    <linearGradient
       inkscape:collect="always"
       xlink:href="#linearGradient4945"
       id="linearGradient4949-6-6"
       x1="195.21429"
       y1="73.790771"
       x2="214.78571"
       y2="73.790771"
       gradientUnits="userSpaceOnUse"
       gradientTransform="matrix(0.78323699,0,0,0.78323699,25.222153,165.28079)" />
    <linearGradient
       inkscape:collect="always"
       xlink:href="#linearGradient4945"
       id="linearGradient4949-6-66"
       x1="195.21429"
       y1="73.790771"
       x2="214.78571"
       y2="73.790771"
       gradientUnits="userSpaceOnUse"
       gradientTransform="matrix(0.78323699,0,0,0.78323699,-40.135006,165.28079)" />
    <linearGradient
       inkscape:collect="always"
       xlink:href="#linearGradient4945"
       id="linearGradient4949-3"
       x1="195.21429"
       y1="73.790771"
       x2="214.78571"
       y2="73.790771"
       gradientUnits="userSpaceOnUse"
       gradientTransform="matrix(0.78323699,0,0,0.78323699,-18.349288,165.28079)" />
    <linearGradient
       inkscape:collect="always"
       xlink:href="#linearGradient4945"
       id="linearGradient4949-6-66-7"
       x1="195.21429"
       y1="73.790771"
       x2="214.78571"
       y2="73.790771"
       gradientUnits="userSpaceOnUse"
       gradientTransform="matrix(0.78323699,0,0,0.78323699,309.50786,165.59644)" />
    <linearGradient
       inkscape:collect="always"
       xlink:href="#linearGradient4945"
       id="linearGradient4949-3-8"
       x1="195.21429"
       y1="73.790771"
       x2="214.78571"
       y2="73.790771"
       gradientUnits="userSpaceOnUse"
       gradientTransform="matrix(0.78323699,0,0,0.78323699,331.29358,165.59644)" />
    <linearGradient
       inkscape:collect="always"
       xlink:href="#linearGradient4945"
       id="linearGradient4949-1-3"
       x1="195.21429"
       y1="73.790771"
       x2="214.78571"
       y2="73.790771"
       gradientUnits="userSpaceOnUse"
       gradientTransform="matrix(0.78323699,0,0,0.78323699,353.07929,165.59644)" />
    <linearGradient
       inkscape:collect="always"
       xlink:href="#linearGradient4945"
       id="linearGradient4949-6-6-4"
       x1="195.21429"
       y1="73.790771"
       x2="214.78571"
       y2="73.790771"
       gradientUnits="userSpaceOnUse"
       gradientTransform="matrix(0.78323699,0,0,0.78323699,374.86502,165.59644)" />
    <linearGradient
       inkscape:collect="always"
       xlink:href="#linearGradient4945"
       id="linearGradient4949-6-4-5"
       x1="195.21429"
       y1="73.790771"
       x2="214.78571"
       y2="73.790771"
       gradientUnits="userSpaceOnUse"
       gradientTransform="matrix(0.78323699,0,0,0.78323699,353.5793,210.16788)" />
    <linearGradient
       inkscape:collect="always"
       xlink:href="#linearGradient4945"
       id="linearGradient4949-0-9"
       x1="195.21429"
       y1="73.790771"
       x2="214.78571"
       y2="73.790771"
       gradientUnits="userSpaceOnUse"
       gradientTransform="matrix(0.78323699,0,0,0.78323699,287.72214,165.59646)" />
    <linearGradient
       inkscape:collect="always"
       xlink:href="#linearGradient4945"
       id="linearGradient4949-6-7-2"
       x1="195.21429"
       y1="73.790771"
       x2="214.78571"
       y2="73.790771"
       gradientUnits="userSpaceOnUse"
       gradientTransform="matrix(0.78323699,0,0,0.78323699,309.00786,210.16787)" />
    <linearGradient
       inkscape:collect="always"
       xlink:href="#linearGradient4945"
       id="linearGradient4949-6-0"
       x1="195.21429"
       y1="73.790771"
       x2="214.78571"
       y2="73.790771"
       gradientUnits="userSpaceOnUse"
       gradientTransform="matrix(0.78323699,0,0,0.78323699,320.65072,249.88217)" />
    <linearGradient
       inkscape:collect="always"
       xlink:href="#linearGradient4945"
       id="linearGradient4949-33"
       x1="195.21429"
       y1="73.790771"
       x2="214.78571"
       y2="73.790771"
       gradientUnits="userSpaceOnUse"
       gradientTransform="matrix(0.78323699,0,0,0.78323699,342.79357,249.88218)" />
    <linearGradient
       inkscape:collect="always"
       xlink:href="#linearGradient4945"
       id="linearGradient4949-7"
       x1="195.21429"
       y1="73.790771"
       x2="214.78571"
       y2="73.790771"
       gradientUnits="userSpaceOnUse"
       gradientTransform="matrix(0.78323699,0,0,0.78323699,-28.420723,62.423668)" />
    <linearGradient
       inkscape:collect="always"
       xlink:href="#linearGradient4945"
       id="linearGradient4949-7-6"
       x1="195.21429"
       y1="73.790771"
       x2="214.78571"
       y2="73.790771"
       gradientUnits="userSpaceOnUse"
       gradientTransform="matrix(0.78323699,0,0,0.78323699,322.76405,62.127726)" />
    <marker
       inkscape:stockid="Arrow2Lend"
       orient="auto"
       refY="0"
       refX="0"
       id="Arrow2Lend-3"
       style="overflow:visible"
       inkscape:isstock="true"
       inkscape:collect="always">
      <path
         inkscape:connector-curvature="0"
         id="path4163-6"
         style="fill:#006a9e;fill-opacity:1;fill-rule:evenodd;stroke:#0065a6;stroke-width:0.625;stroke-linejoin:round;stroke-opacity:1"
         d="M 8.7185878,4.0337352 -2.2072895,0.01601326 8.7185884,-4.0017078 c -1.7454984,2.3720609 -1.7354408,5.6174519 -6e-7,8.035443 z"
         transform="matrix(-1.1,0,0,-1.1,-1.1,0)" />
    </marker>
    <marker
       inkscape:isstock="true"
       style="overflow:visible"
       id="marker6165-9"
       refX="0"
       refY="0"
       orient="auto"
       inkscape:stockid="Arrow2Lend">
      <path
         inkscape:connector-curvature="0"
         transform="matrix(-1.1,0,0,-1.1,-1.1,0)"
         d="M 8.7185878,4.0337352 -2.2072895,0.01601326 8.7185884,-4.0017078 c -1.7454984,2.3720609 -1.7354408,5.6174519 -6e-7,8.035443 z"
         style="fill:#d80000;fill-opacity:1;fill-rule:evenodd;stroke:#d80004;stroke-width:0.625;stroke-linejoin:round;stroke-opacity:1"
         id="path6167-7" />
    </marker>
    <marker
       inkscape:stockid="Arrow2Lend"
       orient="auto"
       refY="0"
       refX="0"
       id="Arrow2Lend-3-3"
       style="overflow:visible"
       inkscape:isstock="true"
       inkscape:collect="always">
      <path
         inkscape:connector-curvature="0"
         id="path4163-6-1"
         style="fill:#006a9e;fill-opacity:1;fill-rule:evenodd;stroke:#0065a6;stroke-width:0.625;stroke-linejoin:round;stroke-opacity:1"
         d="M 8.7185878,4.0337352 -2.2072895,0.01601326 8.7185884,-4.0017078 c -1.7454984,2.3720609 -1.7354408,5.6174519 -6e-7,8.035443 z"
         transform="matrix(-1.1,0,0,-1.1,-1.1,0)" />
    </marker>
    <linearGradient
       inkscape:collect="always"
       xlink:href="#linearGradient4945"
       id="linearGradient4949-7-6-1"
       x1="195.21429"
       y1="73.790771"
       x2="214.78571"
       y2="73.790771"
       gradientUnits="userSpaceOnUse"
       gradientTransform="matrix(0.78323699,0,0,0.78323699,381.57927,98.13795)" />
  </defs>
  <sodipodi:namedview
     id="base"
     pagecolor="#ffffff"
     bordercolor="#666666"
     borderopacity="1.0"
     inkscape:pageopacity="0.0"
     inkscape:pageshadow="2"
     inkscape:zoom="1.4"
     inkscape:cx="437.8137"
     inkscape:cy="812.05478"
     inkscape:document-units="px"
     inkscape:current-layer="layer1"
     showgrid="false"
     inkscape:window-width="1920"
     inkscape:window-height="1018"
     inkscape:window-x="-8"
     inkscape:window-y="-8"
     inkscape:window-maximized="1" />
  <metadata
     id="metadata7">
    <rdf:RDF>
      <cc:Work
         rdf:about="">
        <dc:format>image/svg+xml</dc:format>
        <dc:type
           rdf:resource="http://purl.org/dc/dcmitype/StillImage" />
        <dc:title></dc:title>
      </cc:Work>
    </rdf:RDF>
  </metadata>
  <g
     inkscape:label="Ebene 1"
     inkscape:groupmode="layer"
     id="layer1">
    <path
       style="fill:none;fill-rule:evenodd;stroke:#000000;stroke-width:0.79598159px;stroke-linecap:butt;stroke-linejoin:miter;stroke-opacity:1"
       d="m 53.558964,165.89761 c 0,0 37.258762,1.24001 69.388676,131.12159 37.99496,153.59038 37.64034,-131.1206 108.45728,-131.1206"
       id="path4914"
       inkscape:connector-curvature="0"
       sodipodi:nodetypes="csc" />
    <path
       style="fill:#3200ff;fill-rule:evenodd;stroke:#ff0000;stroke-width:1.5;stroke-linecap:butt;stroke-linejoin:miter;stroke-opacity:1;fill-opacity:1;stroke-miterlimit:4;stroke-dasharray:none"
       d="m 47.857143,176.64792 194.999997,0"
       id="path4918"
       inkscape:connector-curvature="0" />
    <path
       style="fill:none;fill-rule:evenodd;stroke:#000000;stroke-width:1;stroke-linecap:butt;stroke-linejoin:miter;stroke-opacity:1;stroke-miterlimit:4;stroke-dasharray:2,2;stroke-dashoffset:0"
       d="m 85,223.07649 115,0"
       id="path4920"
       inkscape:connector-curvature="0" />
    <path
       style="fill:none;fill-rule:evenodd;stroke:#000000;stroke-width:1;stroke-linecap:butt;stroke-linejoin:miter;stroke-opacity:1;stroke-miterlimit:4;stroke-dasharray:2,2;stroke-dashoffset:0"
       d="m 89.642857,308.79078 115.000003,0"
       id="path4920-4"
       inkscape:connector-curvature="0" />
    <path
       style="fill:none;fill-rule:evenodd;stroke:#000000;stroke-width:1;stroke-linecap:butt;stroke-linejoin:miter;stroke-opacity:1;stroke-miterlimit:4;stroke-dasharray:2,2;stroke-dashoffset:0"
       d="m 90.357143,268.79078 114.999997,0"
       id="path4920-2"
       inkscape:connector-curvature="0" />
    <circle
       style="fill:#3262ff;fill-opacity:1;stroke:url(#linearGradient4949);stroke-width:0.93988442;stroke-miterlimit:4;stroke-dasharray:none;stroke-dashoffset:0;stroke-opacity:0.96499999"
       id="path4943"
       cx="153.71428"
       cy="307.36221"
       r="7.2729149" />
    <circle
       style="fill:#ffffff;fill-opacity:1;stroke:url(#linearGradient4949-6);stroke-width:0.93988442;stroke-miterlimit:4;stroke-dasharray:none;stroke-dashoffset:0;stroke-opacity:0.96499999"
       id="path4943-1"
       cx="131.57143"
       cy="307.36221"
       r="7.2729149" />
    <circle
       style="fill:#3262ff;fill-opacity:1;stroke:url(#linearGradient4949-6-7);stroke-width:0.93988442;stroke-miterlimit:4;stroke-dasharray:none;stroke-dashoffset:0;stroke-opacity:0.96499999"
       id="path4943-1-1"
       cx="119.92857"
       cy="267.64792"
       r="7.2729149" />
    <circle
       style="fill:#3262ff;fill-opacity:1;stroke:url(#linearGradient4949-0);stroke-width:0.93988442;stroke-miterlimit:4;stroke-dasharray:none;stroke-dashoffset:0;stroke-opacity:0.96499999"
       id="path4943-55"
       cx="98.642853"
       cy="223.07648"
       r="7.2729149" />
    <circle
       style="fill:#3262ff;fill-opacity:1;stroke:url(#linearGradient4949-6-4);stroke-width:0.93988442;stroke-miterlimit:4;stroke-dasharray:none;stroke-dashoffset:0;stroke-opacity:0.96499999"
       id="path4943-1-8"
       cx="164.50002"
       cy="267.64792"
       r="7.2729149" />
    <circle
       style="fill:#3262ff;fill-opacity:1;stroke:url(#linearGradient4949-6-6);stroke-width:0.93988442;stroke-miterlimit:4;stroke-dasharray:none;stroke-dashoffset:0;stroke-opacity:0.96499999"
       id="path4943-1-0"
       cx="185.78574"
       cy="223.07648"
       r="7.2729149" />
    <circle
       style="fill:#3262ff;fill-opacity:1;stroke:#002eff;stroke-width:0.93988442;stroke-miterlimit:4;stroke-dasharray:none;stroke-dashoffset:0;stroke-opacity:1"
       id="path4943-2"
       cx="164.00002"
       cy="223.07648"
       r="7.2729149" />
    <circle
       style="fill:#3262ff;fill-opacity:1;stroke:url(#linearGradient4949-3);stroke-width:0.93988442;stroke-miterlimit:4;stroke-dasharray:none;stroke-dashoffset:0;stroke-opacity:0.96499999"
       id="path4943-96"
       cx="142.21429"
       cy="223.07648"
       r="7.2729149" />
    <circle
       style="fill:#3262ff;fill-opacity:1;stroke:url(#linearGradient4949-6-66);stroke-width:0.93988442;stroke-miterlimit:4;stroke-dasharray:none;stroke-dashoffset:0;stroke-opacity:0.96499999"
       id="path4943-1-18"
       cx="120.42857"
       cy="223.07648"
       r="7.2729149" />
    <path
       style="fill:#ff9900;fill-opacity:1"
       d="m 116.11569,304.88542 c -0.0682,-0.14415 -0.18043,-0.24259 -0.24944,-0.21864 -0.069,0.024 -0.49984,-0.0998 -0.95747,-0.27503 -0.45763,-0.17519 -0.90798,-0.29211 -1.0008,-0.25983 -0.0928,0.0324 -0.52286,-0.13606 -0.95567,-0.37409 -0.45846,-0.25214 -0.94447,-0.37938 -1.16438,-0.30483 -0.20761,0.0704 -0.42445,0.0286 -0.48187,-0.0927 -0.0574,-0.12135 -0.38075,-0.30598 -0.71853,-0.41023 -0.33779,-0.10426 -0.79408,-0.28692 -1.014,-0.40591 -0.21991,-0.11901 -0.49586,-0.18269 -0.6132,-0.14155 -0.11735,0.0411 -0.25055,-0.004 -0.29603,-0.0999 -0.0454,-0.0961 -0.16814,-0.14481 -0.27263,-0.10815 -0.10445,0.0366 -0.5448,-0.12988 -0.9785,-0.37 -0.43372,-0.24014 -0.89469,-0.3994 -1.02439,-0.35393 -0.21011,0.0736 -2.16929,-0.74484 -2.26449,-0.94604 -0.0209,-0.0442 0.12495,-0.13698 0.32331,-0.20701 0.43946,-0.1541 1.38839,-1.11242 1.29567,-1.30843 -0.0368,-0.0777 0.0835,-0.19378 0.26711,-0.25825 0.18367,-0.0644 0.29671,-0.19575 0.25126,-0.29184 -0.0455,-0.0961 0.10512,-0.24063 0.33472,-0.32111 0.22958,-0.0805 0.38021,-0.22499 0.33473,-0.32112 -0.0455,-0.096 0.0661,-0.22694 0.24806,-0.29072 0.45507,-0.15956 0.26169,-1.07723 -0.2605,-1.23621 -0.20609,-0.0627 -0.4543,-0.28232 -0.55158,-0.488 -0.0973,-0.20566 -0.25204,-0.3476 -0.34386,-0.31542 -0.0918,0.0322 -0.24138,-0.0987 -0.33234,-0.29095 -0.091,-0.19222 -0.24053,-0.32313 -0.33234,-0.29095 -0.0918,0.0321 -0.27973,-0.17988 -0.41761,-0.4712 -0.14652,-0.30968 -0.37446,-0.53504 -0.54874,-0.54246 -0.16392,-0.007 -0.38708,-0.20096 -0.49587,-0.431 -0.10884,-0.22998 -0.27299,-0.39184 -0.36501,-0.35944 -0.0918,0.0322 -0.24138,-0.0987 -0.33235,-0.29096 -0.091,-0.19221 -0.24052,-0.32313 -0.33234,-0.29095 -0.0919,0.0322 -0.25998,-0.13805 -0.37366,-0.37834 -0.12862,-0.27183 -0.30135,-0.40368 -0.45715,-0.34907 -0.15587,0.0546 -0.32855,-0.0772 -0.45716,-0.34907 -0.11368,-0.24029 -0.28185,-0.41053 -0.37367,-0.37835 -0.0918,0.0322 -0.27858,-0.17737 -0.41499,-0.46572 -0.13644,-0.28834 -0.31797,-0.49974 -0.4034,-0.4698 -0.0854,0.03 -0.26308,-0.11404 -0.394751,-0.32001 -0.22467,-0.35138 -0.33086,-0.34603 -1.72424,0.0873 -0.94532,0.29398 -1.45362,0.52775 -1.39894,0.64332 0.0522,0.11036 -0.43421,0.36397 -1.23998,0.64644 -0.72923,0.25569 -1.33511,0.55982 -1.34639,0.67582 -0.0113,0.11599 -0.35419,0.32793 -0.762002,0.47093 -0.407821,0.14299 -0.778701,0.18135 -0.824179,0.0852 -0.0455,-0.0961 -0.313465,-0.0938 -0.595511,0.005 -0.282061,0.0989 -0.673318,0.1051 -0.869479,0.0138 -0.69217,-0.32219 -1.236184,-2.12787 -0.697936,-2.31661 0.172805,-0.0605 0.522501,-1.16921 0.430301,-1.36406 -0.0475,-0.10052 0.045,-0.22889 0.205694,-0.28532 0.341341,-0.11989 0.86221,-1.16054 0.72555,-1.44938 -0.05157,-0.10894 0.01897,-0.23762 0.156722,-0.2859 0.137732,-0.0483 0.213236,-0.16647 0.167779,-0.26257 -0.0455,-0.0961 0.03506,-0.21603 0.178985,-0.26648 0.143891,-0.0505 0.379448,-0.45395 0.523419,-0.89662 0.14395,-0.44268 0.357983,-0.83862 0.475615,-0.87986 0.11761,-0.0413 0.339012,-0.43979 0.492022,-0.88562 0.15297,-0.44584 0.3684,-0.84238 0.47872,-0.88119 0.27056,-0.0953 0.75123,-1.16958 0.63403,-1.41728 -0.0516,-0.10895 0.019,-0.23763 0.15673,-0.28591 0.13773,-0.0483 0.21323,-0.16646 0.16777,-0.26255 -0.0454,-0.0961 0.0405,-0.21796 0.19109,-0.27076 0.32777,-0.11493 0.48254,-0.74279 0.28862,-1.17084 -0.12261,-0.27065 -0.32023,-0.24427 -1.64209,0.21921 -0.890493,0.31223 -1.469022,0.59809 -1.420021,0.70165 0.04671,0.0986 -0.392126,0.34123 -1.007844,0.55711 -0.815325,0.28588 -1.083474,0.45702 -1.062603,0.6782 0.0213,0.22574 -0.262163,0.39754 -1.196612,0.72517 -0.673496,0.23615 -1.233763,0.52428 -1.245042,0.64029 -0.0113,0.11599 -0.57515,0.40541 -1.253052,0.6431 -0.677903,0.23769 -1.241773,0.52709 -1.253045,0.6431 -0.0268,0.27567 -1.979037,0.96017 -2.087086,0.73179 -0.0455,-0.0961 -0.308102,-0.0957 -0.583596,8.7e-4 -0.326303,0.11442 -0.54269,0.0873 -0.620811,-0.0778 -0.06595,-0.13941 -0.289488,-0.28734 -0.496399,-0.32911 -0.207057,-0.0416 -0.289182,-0.10907 -0.182505,-0.14987 0.190374,-0.0729 0.275973,-1.19542 0.116782,-1.53187 -0.08964,-0.18939 0.373069,-1.29408 0.571283,-1.36398 0.06883,-0.0243 0.06929,-0.16209 0.0011,-0.30625 -0.06891,-0.14563 0.02439,-0.31416 0.209904,-0.37921 0.183665,-0.0644 0.303015,-0.18244 0.265139,-0.26238 -0.03778,-0.0799 0.06934,-0.3163 0.238086,-0.52539 0.168744,-0.20907 0.273205,-0.45113 0.232161,-0.53787 -0.110736,-0.23407 0.134028,-0.81203 0.384197,-0.90717 0.298467,-0.11352 0.603665,-0.70784 0.488466,-0.95128 -0.05187,-0.10952 0.0019,-0.23288 0.119346,-0.27407 0.117505,-0.0412 0.24746,-0.27017 0.288909,-0.50878 0.04142,-0.23865 0.172763,-0.46806 0.291859,-0.50982 0.11908,-0.0418 0.341701,-0.44069 0.494667,-0.88654 0.152959,-0.44584 0.363058,-0.84039 0.46688,-0.8768 0.103815,-0.0364 0.364299,-0.54031 0.578825,-1.11979 0.214527,-0.57948 0.456788,-1.077 0.538348,-1.1056 0.08157,-0.0286 0.05529,-0.24858 -0.0584,-0.48888 -0.203264,-0.42959 -0.228976,-0.42906 -1.542452,0.0315 -0.779177,0.27322 -1.301283,0.54117 -1.253046,0.64311 0.04671,0.0986 -0.392126,0.34123 -1.007838,0.55711 -0.815332,0.28588 -1.08348,0.45703 -1.062609,0.67819 0.02155,0.22839 -0.272545,0.40118 -1.289954,0.75792 -0.767268,0.26902 -1.283317,0.53509 -1.235189,0.63683 0.04824,0.10193 -0.473876,0.36988 -1.253045,0.64309 -0.779184,0.2732 -1.301282,0.54116 -1.253045,0.6431 0.04596,0.0971 -0.362601,0.33083 -0.919127,0.52601 -0.556554,0.19514 -1.038547,0.2736 -1.084484,0.1765 -0.0455,-0.096 -0.215334,-0.13115 -0.377502,-0.0779 -0.509676,0.16749 -1.085347,-0.13386 -1.358499,-0.71117 -0.14279,-0.30177 -0.189545,-0.57324 -0.103896,-0.60327 0.08566,-0.0301 0.127116,-0.24072 0.0922,-0.46817 -0.03494,-0.22747 0.182265,-1.07688 0.482659,-1.88759 0.300395,-0.8107 0.506514,-1.55784 0.458036,-1.6603 -0.04849,-0.10245 0.06863,-0.24126 0.260273,-0.30842 0.202309,-0.0709 0.533649,-0.65697 0.790192,-1.39765 0.242993,-0.70152 0.548223,-1.3128 0.678291,-1.35841 0.130075,-0.0456 0.330905,-0.4369 0.446272,-0.86956 0.115374,-0.43266 0.263043,-0.80533 0.328162,-0.82817 0.0651,-0.0229 0.176295,-0.17683 0.247738,-0.34156 0.278654,-0.64626 0.425083,-0.91308 0.519178,-0.94607 0.169109,-0.0593 0.516161,-1.1706 0.425431,-1.36237 -0.04758,-0.10045 -0.0059,-0.21091 0.09245,-0.24541 0.266006,-0.0933 0.438264,-0.69003 0.289767,-1.00389 -0.107271,-0.22678 -0.362675,-0.193 -1.46567,0.19374 -0.779184,0.27321 -1.301282,0.54116 -1.253053,0.6431 0.04896,0.10347 -0.52624,0.38826 -1.410161,0.69819 -0.821068,0.28788 -1.502071,0.61835 -1.513364,0.73436 -0.0113,0.11599 -0.617148,0.42014 -1.34638,0.67583 -0.77261,0.2709 -1.291377,0.53781 -1.243199,0.63964 0.04935,0.10427 -0.559102,0.39977 -1.508739,0.73275 -1.260576,0.44199 -1.585622,0.6195 -1.563506,0.85382 0.01536,0.1627 -0.04454,0.32124 -0.133109,0.35228 -0.08854,0.031 -0.329549,-0.022 -0.535509,-0.11785 -0.220115,-0.10246 -0.679253,-0.0674 -1.113897,0.085 -0.406688,0.14259 -0.776632,0.18063 -0.822117,0.0845 -0.04543,-0.0961 -0.195411,-0.13521 -0.33313,-0.0869 -0.344293,0.12071 -0.887561,-1.02746 -0.608693,-1.28645 0.111797,-0.1034 0.145875,-0.30882 0.07623,-0.45601 -0.06964,-0.14718 -0.05148,-0.29395 0.04036,-0.32615 0.09178,-0.0322 0.126753,-0.14314 0.07837,-0.24578 -0.09638,-0.20363 0.08619,-0.83064 0.259552,-0.89142 0.139338,-0.0488 0.363976,-0.67072 0.294991,-0.81652 -0.09305,-0.19676 0.179488,-0.77579 0.405658,-0.86181 0.252884,-0.0962 0.610238,-0.69394 0.523898,-0.8764 -0.09041,-0.19098 0.15997,-0.78311 0.360893,-0.85355 0.09832,-0.0345 0.141735,-0.14133 0.0962,-0.23749 -0.04543,-0.0961 0.03993,-0.21774 0.189802,-0.27028 0.149831,-0.0526 0.390252,-0.45774 0.534223,-0.90041 0.143964,-0.44268 0.379507,-0.84616 0.523419,-0.89662 0.143884,-0.0505 0.224448,-0.17039 0.178985,-0.26648 -0.04543,-0.0961 0.03003,-0.21427 0.167772,-0.26256 0.137733,-0.0483 0.210594,-0.17207 0.161826,-0.27509 -0.122334,-0.25861 0.105931,-0.83618 0.370219,-0.9367 0.252884,-0.0962 0.610238,-0.69394 0.523905,-0.87639 -0.119982,-0.25367 0.193142,-0.79474 0.527863,-0.9121 0.283954,-0.0996 0.294066,-0.23073 0.05646,-0.73289 l -0.289393,-0.61163 -0.918324,0.32199 c -0.704972,0.24718 -0.889503,0.38288 -0.794288,0.5841 0.09982,0.21102 -0.134601,0.35282 -1.201856,0.72702 -0.729232,0.25569 -1.335108,0.55982 -1.346387,0.67582 -0.0113,0.11599 -0.504436,0.38064 -1.095936,0.58801 -0.605647,0.21236 -1.039317,0.45342 -0.992747,0.55183 0.04725,0.0999 -0.418202,0.3504 -1.086082,0.58456 -0.667873,0.23416 -1.133337,0.48469 -1.086082,0.58455 0.04816,0.10185 -0.470561,0.36877 -1.243199,0.63964 -0.729239,0.2557 -1.409531,0.40254 -1.511759,0.32633 -0.102242,-0.0762 -0.299508,-0.0987 -0.438395,-0.05 -0.138915,0.0487 -0.413013,0.0138 -0.609166,-0.0775 -0.406897,-0.1894 -0.783419,-0.86045 -0.532235,-0.94851 0.09185,-0.0322 0.07395,-0.25514 -0.03975,-0.49542 -0.113691,-0.24029 -0.131574,-0.46322 -0.03974,-0.49543 0.09185,-0.0322 0.09255,-0.21582 0.0016,-0.40804 -0.09096,-0.19221 -0.08487,-0.37772 0.01353,-0.41222 0.200374,-0.0702 0.451369,-0.66235 0.361396,-0.8525 -0.07299,-0.1542 0.424442,-1.25613 0.594026,-1.31593 0.06883,-0.0243 0.08624,-0.12631 0.03868,-0.22682 -0.09221,-0.19483 0.257524,-1.30348 0.430308,-1.36406 0.169898,-0.0596 0.350358,-0.68881 0.255209,-0.88991 -0.04872,-0.10296 0.04286,-0.23343 0.203475,-0.28992 0.341334,-0.11991 0.862224,-1.16053 0.725557,-1.44936 -0.05157,-0.10895 0.01896,-0.23763 0.156729,-0.28591 0.137725,-0.0483 0.213229,-0.16647 0.167773,-0.26256 -0.0455,-0.0961 0.03538,-0.21615 0.179674,-0.26676 0.299874,-0.10514 0.546301,-0.66739 0.414598,-0.94578 -0.04873,-0.10297 0.0075,-0.22093 0.125031,-0.26209 0.117505,-0.0412 0.24746,-0.27017 0.288916,-0.50878 0.04141,-0.23865 0.184876,-0.47231 0.318787,-0.51927 0.133896,-0.047 0.350351,-0.42807 0.480946,-0.84697 0.238826,-0.76594 0.818634,-1.38471 0.979353,-1.04508 0.04725,0.0999 0.317153,0.2717 0.599794,0.38184 0.48691,0.18976 0.496948,0.2062 0.191246,0.3134 -0.177471,0.0622 -0.356519,0.30838 -0.397911,0.54705 -0.04143,0.23864 -0.139232,0.4563 -0.217358,0.48369 -0.07813,0.0274 -0.194536,0.18281 -0.258704,0.34537 -0.06417,0.16258 -0.245493,0.51841 -0.40295,0.79074 -0.489321,0.84634 -0.65886,1.30129 -0.56157,1.5069 0.0515,0.10887 -0.03779,0.24414 -0.198408,0.30063 -0.341341,0.11992 -0.862224,1.16054 -0.725557,1.44937 0.05157,0.10894 -0.01897,0.23763 -0.156729,0.28591 -0.137733,0.0483 -0.213229,0.16646 -0.167773,0.26256 0.04543,0.0961 -0.03328,0.21541 -0.175007,0.26512 -0.141731,0.0497 -0.469617,0.66892 -0.728622,1.37605 -0.259005,0.70714 -0.539474,1.30974 -0.623265,1.33911 -0.08376,0.0294 -0.09651,0.17141 -0.02832,0.31555 0.06824,0.14413 0.0055,0.30367 -0.139274,0.35444 -0.341267,0.11966 -0.794635,1.37457 -0.625637,1.73176 0.07171,0.15156 0.05525,0.30191 -0.03658,0.33411 -0.09178,0.0322 -0.09255,0.21581 -0.0016,0.40804 0.133871,0.28293 0.27669,0.31047 0.749749,0.1446 0.321411,-0.11269 0.547183,-0.28354 0.501676,-0.37967 -0.04963,-0.10483 0.585187,-0.40892 1.586992,-0.76019 1.001798,-0.35125 1.636591,-0.65534 1.586978,-0.76018 -0.0466,-0.0984 0.387079,-0.33949 0.992747,-0.55183 0.591486,-0.20739 1.084664,-0.47199 1.095943,-0.588 0.0113,-0.11599 0.461474,-0.36561 1.000525,-0.55456 0.648503,-0.22739 1.022787,-0.462 1.106444,-0.69356 0.159366,-0.44113 3.763286,-1.77362 3.917199,-1.44832 0.05151,0.10888 0.337199,0.29609 0.634866,0.41605 0.367108,0.14796 0.486002,0.26689 0.369705,0.3696 -0.09404,0.0837 -0.09999,0.30296 -0.01245,0.48796 0.173322,0.36631 -0.988983,3.79173 -1.326801,3.91018 -0.113746,0.0399 -0.240682,0.26779 -0.282131,0.5064 -0.04143,0.23864 -0.171433,0.46759 -0.288909,0.50878 -0.117506,0.0412 -0.157805,0.19282 -0.08956,0.33702 0.06891,0.14563 -0.02439,0.31416 -0.209911,0.37921 -0.183658,0.0644 -0.296704,0.19574 -0.251247,0.29183 0.04543,0.0961 -0.01218,0.20801 -0.128147,0.24866 -0.115928,0.0407 -0.258843,0.32 -0.317576,0.62071 -0.05872,0.30073 -0.208933,0.58261 -0.333814,0.6264 -0.124924,0.0438 -0.189877,0.15824 -0.144413,0.25433 0.04543,0.0961 0.0041,0.2023 -0.0919,0.23593 -0.096,0.0337 -0.269379,0.32366 -0.385264,0.64444 -0.115891,0.32078 -0.289845,0.61099 -0.386573,0.6449 -0.09678,0.0339 -0.274822,0.3714 -0.395736,0.74998 -0.120923,0.37858 -0.302409,0.71726 -0.403318,0.75264 -0.100858,0.0354 -0.127623,0.18231 -0.05944,0.32645 0.06824,0.14415 0.0082,0.30275 -0.133404,0.35239 -0.427704,0.14997 -0.647211,0.95813 -0.375601,1.38287 0.284708,0.44524 0.808009,0.44057 1.204571,-0.0107 0.147415,-0.16781 0.901217,-0.5869 1.67508,-0.93134 0.773863,-0.34443 1.373153,-0.69782 1.331759,-0.78532 -0.04142,-0.0875 0.525818,-0.36981 1.26047,-0.6274 0.779183,-0.27321 1.301282,-0.54116 1.253052,-0.6431 -0.04902,-0.10353 0.529528,-0.38941 1.420022,-0.70164 0.89048,-0.31223 1.469009,-0.59809 1.420015,-0.70163 -0.04984,-0.10545 0.613009,-0.41869 1.670466,-0.78946 1.057458,-0.37078 1.785963,-0.54536 1.835838,-0.43996 0.0455,0.0961 0.238317,0.12018 0.428542,0.0535 0.963489,-0.33783 1.654665,0.78293 1.194752,1.9373 -0.171298,0.42996 -0.253131,0.90498 -0.181867,1.05561 0.07129,0.1506 0.05445,0.3002 -0.03739,0.3324 -0.09185,0.0322 -0.111191,0.17647 -0.04294,0.32066 0.06904,0.14591 -0.02451,0.31421 -0.210995,0.37961 -0.19019,0.0666 -0.599226,0.82676 -0.946064,1.7579 -0.336063,0.90224 -0.697175,1.67064 -0.802468,1.70757 -0.105293,0.0369 -0.225353,0.26236 -0.266759,0.50101 -0.04143,0.23864 -0.13924,0.45631 -0.217358,0.48369 -0.201246,0.0706 -0.399839,0.68042 -0.294251,0.90359 0.04874,0.10297 -0.06168,0.23992 -0.245371,0.30429 -0.183665,0.0644 -0.29671,0.19574 -0.251247,0.29183 0.04543,0.0961 0.0022,0.20299 -0.0962,0.23749 -0.217603,0.0763 -0.448201,0.66904 -0.345087,0.88698 0.04106,0.0867 -0.06343,0.32878 -0.232168,0.53788 -0.168744,0.20907 -0.27587,0.44551 -0.238079,0.52538 0.03778,0.0799 -0.04635,0.18555 -0.186994,0.23485 -0.14064,0.0493 -0.243087,0.2228 -0.227775,0.38547 0.01536,0.1627 -0.07675,0.33253 -0.20466,0.37738 -0.147086,0.0516 -0.141428,0.27421 0.01546,0.6058 0.238863,0.50484 0.27588,0.51449 0.999404,0.26081 0.413248,-0.14489 0.714146,-0.34209 0.668668,-0.43819 -0.04824,-0.10194 0.473883,-0.36989 1.253052,-0.6431 0.779177,-0.27321 1.301282,-0.54116 1.253052,-0.6431 -0.04673,-0.0988 0.394321,-0.34205 1.014531,-0.55947 0.75267,-0.26391 1.136901,-0.49459 1.223632,-0.73465 0.08394,-0.23235 0.459362,-0.46623 1.116298,-0.69702 0.548608,-0.19235 0.95301,-0.42498 0.907197,-0.52183 -0.05108,-0.1079 0.783941,-0.47861 2.183285,-0.96926 1.741222,-0.61053 2.348573,-0.75607 2.622624,-0.62851 0.403238,0.1877 1.036487,1.38294 0.780285,1.47277 -0.09185,0.0322 -0.108475,0.18214 -0.03704,0.33315 0.148504,0.31385 -0.02375,0.91061 -0.289767,1.00389 -0.0984,0.0344 -0.140053,0.14487 -0.09245,0.24541 0.127262,0.26898 -0.289429,1.31468 -0.561959,1.41023 -0.12904,0.0453 -0.282703,0.32832 -0.341408,0.62907 -0.05871,0.30072 -0.16747,0.56807 -0.241682,0.59409 -0.07418,0.026 -0.232048,0.2876 -0.350674,0.58137 -0.322088,0.7973 -0.500738,1.14335 -0.610043,1.18168 -0.05398,0.0189 -0.19293,0.29686 -0.308828,0.61764 -0.115884,0.32078 -0.273017,0.60508 -0.349171,0.63178 -0.07623,0.0267 -0.32392,0.52615 -0.550581,1.10989 -0.226646,0.58373 -0.484794,1.08682 -0.573659,1.11798 -0.360137,0.12626 -0.831634,1.8997 -0.622553,2.34159 0.18853,0.39845 0.280804,0.42688 0.797585,0.24568 0.321406,-0.1127 0.547171,-0.28354 0.501678,-0.37967 -0.04824,-0.10193 0.473876,-0.36989 1.253052,-0.6431 0.779184,-0.2732 1.301282,-0.54116 1.253052,-0.64309 -0.04646,-0.0983 0.383596,-0.33821 0.982155,-0.54812 0.74283,-0.26045 1.090193,-0.47466 1.148667,-0.70837 0.05712,-0.22824 0.396596,-0.44461 1.065186,-0.67909 0.542928,-0.19037 0.94442,-0.42217 0.898673,-0.51884 -0.05147,-0.1087 0.86346,-0.5065 2.421824,-1.0529 1.55835,-0.54641 2.53574,-0.81214 2.58719,-0.7034 0.0454,0.0961 0.1954,0.1352 0.33313,0.0869 0.50655,-0.17762 0.75886,0.88997 0.43706,1.8494 -0.16655,0.49656 -0.34976,1.09169 -0.40714,1.32251 -0.0574,0.23081 -0.23279,0.64691 -0.38982,0.92466 -0.15703,0.27776 -0.23851,0.6043 -0.1811,0.72566 0.0574,0.12134 -0.008,0.26016 -0.14604,0.30846 -0.13772,0.0483 -0.21323,0.16647 -0.16777,0.26256 0.0455,0.0961 -0.0412,0.21819 -0.19262,0.27132 -0.15143,0.0531 -0.40046,0.46134 -0.55347,0.90715 -0.15298,0.44585 -0.38724,0.84888 -0.52057,0.89563 -0.1333,0.0468 -0.20518,0.16364 -0.15973,0.25974 0.0454,0.0961 0.002,0.20298 -0.0962,0.23748 -0.23116,0.0811 -0.44558,0.67457 -0.3311,0.91652 0.0487,0.10297 -0.0651,0.24111 -0.25297,0.30694 -0.355347,0.1246 -0.819506,1.12926 -0.668833,1.4477 0.04757,0.10045 -0.0668,0.23643 -0.254113,0.30209 -0.386798,0.13563 -1.057689,1.86253 -0.874212,2.2503 0.09811,0.20741 0.448363,0.14018 1.873838,-0.35963 1.05746,-0.37078 1.72034,-0.68406 1.67047,-0.78946 -0.0478,-0.10106 0.4478,-0.36074 1.17481,-0.61566 0.96374,-0.33792 1.25097,-0.51002 1.22957,-0.73674 -0.0153,-0.1627 0.15188,-0.35886 0.37165,-0.4359 0.36223,-0.12702 0.43431,-0.0667 0.77166,0.64625 0.31696,0.66988 0.42156,0.76903 0.70601,0.66929 0.18554,-0.065 0.389061,-5.8e-4 0.457961,0.14504 0.0682,0.14414 0.19774,0.23627 0.28785,0.20466 0.0901,-0.0316 0.30394,0.12264 0.47527,0.34271 0.17133,0.22006 0.37842,0.37669 0.46032,0.34797 0.0819,-0.0288 0.22326,0.1051 0.31415,0.29739 0.091,0.19221 0.24053,0.32313 0.33234,0.29095 0.0919,-0.0322 0.25999,0.13806 0.37367,0.37834 0.11369,0.24029 0.28186,0.41052 0.37367,0.37834 0.0918,-0.0321 0.23428,0.0837 0.31653,0.25756 0.0823,0.17385 0.33215,0.43003 0.55526,0.56931 0.22311,0.13929 0.47314,0.39004 0.55569,0.55718 0.0825,0.1672 0.22514,0.2776 0.31696,0.24542 0.0918,-0.0322 0.25998,0.13805 0.37366,0.37833 0.11369,0.2403 0.28186,0.41053 0.37367,0.37835 0.0918,-0.0322 0.23741,0.0903 0.32348,0.27227 0.0861,0.18192 0.29062,0.33658 0.45454,0.34361 0.16392,0.007 0.37362,0.17252 0.46602,0.36775 0.0924,0.19525 0.24313,0.3286 0.33495,0.29642 0.0919,-0.0322 0.24401,0.10437 0.33827,0.30341 0.0942,0.19912 0.33178,0.43666 0.52788,0.52802 0.4069,0.18941 1.09008,0.0116 0.96568,-0.25127 -0.0454,-0.0961 0.13471,-0.25095 0.40037,-0.34411 0.27533,-0.0966 0.47103,-0.29657 0.45534,-0.46497 -0.0154,-0.16271 0.1247,-0.34934 0.31127,-0.41473 0.18658,-0.0654 0.30197,-0.19756 0.25651,-0.29366 -0.0455,-0.096 0.10513,-0.24063 0.33472,-0.32111 0.22959,-0.0805 0.38022,-0.22499 0.33473,-0.32112 -0.0454,-0.0961 0.0676,-0.22744 0.25125,-0.29183 0.18366,-0.0644 0.29671,-0.19575 0.25125,-0.29184 -0.0455,-0.0961 0.03,-0.21427 0.16777,-0.26256 0.21504,-0.0754 0.50767,0.45587 2.06951,3.75669 1.15759,2.44651 1.75835,3.8658 1.6521,3.90305 -0.0985,0.0345 0.12917,0.68627 0.55469,1.58825 1.00704,2.13469 1.21157,2.88599 0.82271,3.02234 -0.17163,0.0602 -0.3679,-0.009 -0.43612,-0.1527 z"
       id="path5086"
       inkscape:connector-curvature="0"
       sodipodi:nodetypes="ccscsccscsccsscssccccssccscscsssscsscccssssccssscscsscssssccscscscsssssscsscssssscscscsccscscsscssscsscccsscssssssccssssscscssscscscccscsssccsccssssccssscssssscscsccscscscsccsscscccscscsssssccsccccccssssccsscssscsscscssccccssssssscssssssscssssscsscsccsssscscccssccssssscscccssscscsscscscsssscscsssssssscscsssssscccsssscssssssssccscccccsccsssscccscscccscsscsscc" />
    <path
       style="fill:none;fill-rule:evenodd;stroke:#000000;stroke-width:0.79598159px;stroke-linecap:butt;stroke-linejoin:miter;stroke-opacity:1"
       d="m 403.20183,166.21326 c 0,0 37.25876,1.24001 69.38867,131.12158 37.99497,153.59038 37.64035,-131.12059 108.45729,-131.12059"
       id="path4914-6"
       inkscape:connector-curvature="0"
       sodipodi:nodetypes="csc" />
    <path
       style="fill:#3200ff;fill-opacity:1;fill-rule:evenodd;stroke:#ff0000;stroke-width:1.5;stroke-linecap:butt;stroke-linejoin:miter;stroke-miterlimit:4;stroke-dasharray:none;stroke-opacity:1"
       d="m 397.50001,178.96357 195,0"
       id="path4918-0"
       inkscape:connector-curvature="0" />
    <path
       style="fill:none;fill-rule:evenodd;stroke:#000000;stroke-width:1;stroke-linecap:butt;stroke-linejoin:miter;stroke-miterlimit:4;stroke-dasharray:2, 2;stroke-dashoffset:0;stroke-opacity:1"
       d="m 434.64286,223.39214 115.00001,0"
       id="path4920-0"
       inkscape:connector-curvature="0" />
    <path
       style="fill:none;fill-rule:evenodd;stroke:#000000;stroke-width:1;stroke-linecap:butt;stroke-linejoin:miter;stroke-miterlimit:4;stroke-dasharray:2, 2;stroke-dashoffset:0;stroke-opacity:1"
       d="m 439.28572,309.10642 115.00001,0"
       id="path4920-4-6"
       inkscape:connector-curvature="0" />
    <path
       style="fill:none;fill-rule:evenodd;stroke:#000000;stroke-width:1;stroke-linecap:butt;stroke-linejoin:miter;stroke-miterlimit:4;stroke-dasharray:2, 2;stroke-dashoffset:0;stroke-opacity:1"
       d="m 440.00001,269.10642 115,0"
       id="path4920-2-8"
       inkscape:connector-curvature="0" />
    <circle
       style="fill:#3262ff;fill-opacity:1;stroke:url(#linearGradient4949-33);stroke-width:0.93988442;stroke-miterlimit:4;stroke-dasharray:none;stroke-dashoffset:0;stroke-opacity:0.96499999"
       id="path4943-21"
       cx="503.35715"
       cy="307.67786"
       r="7.2729149" />
    <circle
       style="fill:#3262ff;fill-opacity:1;stroke:url(#linearGradient4949-6-0);stroke-width:0.93988442;stroke-miterlimit:4;stroke-dasharray:none;stroke-dashoffset:0;stroke-opacity:0.96499999"
       id="path4943-1-17"
       cx="481.21429"
       cy="307.67786"
       r="7.2729149" />
    <circle
       style="fill:#3262ff;fill-opacity:1;stroke:url(#linearGradient4949-6-7-2);stroke-width:0.93988442;stroke-miterlimit:4;stroke-dasharray:none;stroke-dashoffset:0;stroke-opacity:0.96499999"
       id="path4943-1-1-3"
       cx="469.57144"
       cy="267.96356"
       r="7.2729149" />
    <circle
       style="fill:#3262ff;fill-opacity:1;stroke:url(#linearGradient4949-0-9);stroke-width:0.93988442;stroke-miterlimit:4;stroke-dasharray:none;stroke-dashoffset:0;stroke-opacity:0.96499999"
       id="path4943-55-4"
       cx="448.28571"
       cy="223.39212"
       r="7.2729149" />
    <circle
       style="fill:#3262ff;fill-opacity:1;stroke:url(#linearGradient4949-6-4-5);stroke-width:0.93988442;stroke-miterlimit:4;stroke-dasharray:none;stroke-dashoffset:0;stroke-opacity:0.96499999"
       id="path4943-1-8-9"
       cx="514.14288"
       cy="267.96356"
       r="7.2729149" />
    <circle
       style="fill:#fcffff;fill-opacity:1;stroke:url(#linearGradient4949-6-6-4);stroke-width:0.93988442;stroke-miterlimit:4;stroke-dasharray:none;stroke-dashoffset:0;stroke-opacity:0.96499999"
       id="path4943-1-0-1"
       cx="535.42859"
       cy="223.39212"
       r="7.2729149" />
    <circle
       style="fill:#fcffff;fill-opacity:1;stroke:url(#linearGradient4949-1-3);stroke-width:0.93988442;stroke-miterlimit:4;stroke-dasharray:none;stroke-dashoffset:0;stroke-opacity:0.96499999"
       id="path4943-2-3"
       cx="513.64288"
       cy="223.39212"
       r="7.2729149" />
    <circle
       style="fill:#3262ff;fill-opacity:1;stroke:url(#linearGradient4949-3-8);stroke-width:0.93988442;stroke-miterlimit:4;stroke-dasharray:none;stroke-dashoffset:0;stroke-opacity:0.96499999"
       id="path4943-96-5"
       cx="491.85715"
       cy="223.39212"
       r="7.2729149" />
    <circle
       style="fill:#3262ff;fill-opacity:1;stroke:url(#linearGradient4949-6-66-7);stroke-width:0.93988442;stroke-miterlimit:4;stroke-dasharray:none;stroke-dashoffset:0;stroke-opacity:0.96499999"
       id="path4943-1-18-0"
       cx="470.07144"
       cy="223.39212"
       r="7.2729149" />
    <path
       style="fill:#006a9e;fill-opacity:1;fill-rule:evenodd;stroke:#0065a6;stroke-width:2;stroke-linecap:butt;stroke-linejoin:miter;stroke-miterlimit:4.80000019;stroke-dasharray:none;stroke-opacity:1;marker-end:url(#Arrow2Lend)"
       d="m 127.29265,299.9619 3.48022,-167.65681"
       id="path5319"
       inkscape:connector-curvature="0" />
    <path
       style="fill:#d30000;fill-rule:evenodd;stroke:#b80000;stroke-width:2;stroke-linecap:butt;stroke-linejoin:miter;stroke-opacity:1;marker-end:url(#marker6165);fill-opacity:1;stroke-miterlimit:4;stroke-dasharray:none"
       d="m 161.42857,231.64792 -22.14286,70"
       id="path6157"
       inkscape:connector-curvature="0" />
    <path
       style="fill:#219900;fill-opacity:1;stroke-width:0.2;stroke-miterlimit:4;stroke-dasharray:none"
       d="m 200.45771,272.28163 c -0.10203,0.005 -0.18752,0.0478 -0.1899,0.0937 -0.002,0.0459 -0.17953,0.2677 -0.39371,0.49299 -0.21416,0.22531 -0.39195,0.46013 -0.39509,0.52182 -0.003,0.0617 -0.20662,0.27254 -0.45213,0.46856 -0.26008,0.20763 -0.45258,0.46079 -0.46119,0.6065 -0.008,0.13758 -0.0851,0.25405 -0.17098,0.2589 -0.0859,0.005 -0.27337,0.14966 -0.41655,0.32186 -0.1432,0.17222 -0.36147,0.39498 -0.48507,0.49504 -0.12359,0.10011 -0.22781,0.24582 -0.23159,0.32389 -0.003,0.0781 -0.0627,0.14505 -0.13056,0.14892 -0.068,0.003 -0.12647,0.0639 -0.12983,0.13333 -0.003,0.0694 -0.2082,0.28677 -0.45518,0.48283 -0.247,0.19605 -0.45249,0.42706 -0.45668,0.51334 -0.007,0.1398 -0.96432,1.08822 -1.10675,1.09623 -0.0313,0.002 -0.0513,-0.1051 -0.0452,-0.23722 0.0142,-0.2924 -0.3269,-1.07137 -0.46565,-1.0636 -0.055,0.003 -0.095,-0.0944 -0.0892,-0.21656 0.006,-0.1222 -0.0449,-0.21906 -0.11294,-0.21523 -0.068,0.003 -0.11767,-0.11802 -0.11028,-0.27078 0.008,-0.15276 -0.0423,-0.27461 -0.11028,-0.27079 -0.068,0.003 -0.11893,-0.0921 -0.11305,-0.21311 0.0147,-0.30278 -0.57701,-0.40662 -0.79707,-0.13988 -0.0869,0.10531 -0.277,0.19811 -0.4226,0.20625 -0.14558,0.007 -0.26713,0.0648 -0.2701,0.12594 -0.003,0.0612 -0.1167,0.11736 -0.25279,0.125 -0.13608,0.007 -0.24982,0.0639 -0.25279,0.12501 -0.003,0.061 -0.17416,0.12053 -0.38039,0.13214 -0.21922,0.0123 -0.40793,0.0919 -0.45426,0.19175 -0.0436,0.0939 -0.2125,0.17811 -0.37534,0.18722 -0.1628,0.008 -0.29845,0.0666 -0.30133,0.12788 -0.003,0.0612 -0.1167,0.11737 -0.2528,0.125 -0.13609,0.007 -0.24982,0.0639 -0.25279,0.12499 -0.003,0.0612 -0.14456,0.11892 -0.31465,0.12846 -0.19243,0.0109 -0.31231,0.0804 -0.31735,0.18402 -0.006,0.10371 -0.12489,0.17321 -0.31734,0.18401 -0.17009,0.01 -0.31169,0.0673 -0.31466,0.12844 -0.003,0.0612 -0.17238,0.12048 -0.3765,0.13193 -0.20412,0.0115 -0.37338,0.0673 -0.37613,0.1242 -0.002,0.0568 -0.13104,0.12639 -0.28507,0.15451 -0.26279,0.048 -0.28516,0.11114 -0.3629,1.02522 -0.0528,0.62015 -0.0361,0.97145 0.0457,0.96685 0.0782,-0.004 0.11179,0.33887 0.0858,0.87498 -0.0235,0.48521 0.0114,0.90997 0.0776,0.94391 0.0662,0.0338 0.10961,0.28373 0.0965,0.55509 -0.0132,0.27133 -0.0796,0.49648 -0.14765,0.50029 -0.068,0.003 -0.13112,0.16051 -0.14028,0.34815 -0.009,0.18767 -0.0996,0.4171 -0.20094,0.50985 -0.35792,0.32728 -1.5615,0.21827 -1.54416,-0.13988 0.006,-0.11496 -0.56891,-0.58027 -0.70684,-0.57251 -0.0711,0.003 -0.12516,-0.0803 -0.12004,-0.18716 0.0111,-0.22716 -0.48205,-0.77615 -0.68652,-0.76467 -0.0772,0.004 -0.1366,-0.0671 -0.13215,-0.15877 0.004,-0.0916 -0.0476,-0.16351 -0.11563,-0.15969 -0.068,0.003 -0.11989,-0.0714 -0.11525,-0.16717 0.004,-0.0958 -0.17842,-0.32816 -0.40677,-0.51647 -0.22836,-0.18831 -0.41209,-0.40644 -0.4083,-0.48469 0.003,-0.0784 -0.17971,-0.30128 -0.40778,-0.49562 -0.22807,-0.1943 -0.41182,-0.41337 -0.40834,-0.4868 0.009,-0.18013 -0.51412,-0.71363 -0.68947,-0.70378 -0.0772,0.004 -0.1366,-0.0671 -0.13215,-0.15877 0.004,-0.0916 -0.0476,-0.16351 -0.11562,-0.15969 -0.068,0.003 -0.11975,-0.075 -0.11489,-0.17521 0.01,-0.21809 -0.3252,-0.45639 -0.62615,-0.44439 -0.19028,0.007 -0.22214,0.12896 -0.26477,1.00847 -0.0288,0.59251 0.002,0.99702 0.0753,0.9929 0.0698,-0.003 0.10838,0.30898 0.0885,0.71864 -0.0263,0.5425 0.0112,0.73912 0.14731,0.77913 0.13922,0.0408 0.1731,0.24654 0.14296,0.86828 -0.0217,0.44812 0.0147,0.84254 0.081,0.87647 0.0662,0.0338 0.10248,0.43075 0.0806,0.88181 -0.0219,0.45105 0.0144,0.84786 0.0806,0.8818 0.15733,0.0806 0.0943,1.37958 -0.0672,1.38866 -0.068,0.003 -0.13096,0.15696 -0.13987,0.34024 -0.01,0.21712 -0.0786,0.33679 -0.19555,0.34337 -0.0987,0.005 -0.24034,0.10096 -0.31493,0.21158 -0.0745,0.11083 -0.13436,0.14275 -0.13293,0.0709 0.002,-0.12811 -0.6438,-0.44281 -0.88197,-0.42943 -0.13406,0.007 -0.67906,-0.52267 -0.6729,-0.65464 0.002,-0.0458 -0.0796,-0.0787 -0.18169,-0.0729 -0.10314,0.005 -0.18078,-0.0883 -0.1748,-0.21175 0.006,-0.1222 -0.0355,-0.21959 -0.0921,-0.21638 -0.0565,0.003 -0.17125,-0.115 -0.25485,-0.26267 -0.0836,-0.14763 -0.20229,-0.26561 -0.26371,-0.26217 -0.16569,0.01 -0.45016,-0.26965 -0.44651,-0.43786 0.004,-0.20068 -0.27531,-0.51871 -0.44764,-0.50903 -0.0775,0.004 -0.13787,-0.0561 -0.13411,-0.13419 0.003,-0.0783 -0.10103,-0.20792 -0.23276,-0.28836 -0.13182,-0.0804 -0.23651,-0.21109 -0.23268,-0.29033 0.003,-0.0793 -0.1796,-0.30305 -0.40768,-0.49736 -0.22808,-0.19431 -0.41193,-0.4098 -0.40858,-0.47887 0.003,-0.0691 -0.23337,-0.33973 -0.52602,-0.60143 -0.29265,-0.26172 -0.52995,-0.52024 -0.52732,-0.5745 0.002,-0.0543 -0.13437,-0.0909 -0.30448,-0.0812 -0.30411,0.0171 -0.30998,0.0321 -0.35232,0.90613 -0.0251,0.51844 0.009,0.88586 0.0806,0.8818 0.0698,-0.003 0.10839,0.30897 0.0885,0.71865 -0.0263,0.5425 0.0111,0.73911 0.14729,0.77912 0.14088,0.0412 0.17277,0.25343 0.13998,0.93039 -0.0248,0.5105 0.009,0.87396 0.0812,0.86992 0.0721,-0.003 0.10571,0.36337 0.0806,0.8818 -0.0251,0.51844 0.009,0.88586 0.0806,0.8818 0.0688,-0.003 0.10928,0.2893 0.0914,0.65962 -0.018,0.37031 -0.0873,0.66964 -0.15601,0.6735 -0.068,0.003 -0.12972,0.0945 -0.13709,0.20158 -0.0231,0.33647 -0.34061,0.60078 -0.74928,0.62374 -0.21362,0.0121 -0.38615,-0.0247 -0.38339,-0.0819 0.002,-0.0569 -0.11242,-0.13083 -0.25595,-0.16416 -0.14354,-0.0333 -0.59591,-0.36025 -1.00528,-0.72653 -0.40936,-0.36629 -0.80365,-0.66264 -0.87618,-0.65857 -0.0725,0.004 -0.12682,-0.0969 -0.12061,-0.22441 0.007,-0.13461 -0.26193,-0.46593 -0.64025,-0.79013 -0.3583,-0.30708 -0.64804,-0.62913 -0.64385,-0.71569 0.004,-0.0864 -0.17995,-0.29586 -0.40923,-0.46515 -0.22928,-0.1693 -0.41517,-0.34326 -0.41307,-0.38659 0.002,-0.0433 -0.0627,-0.14442 -0.14333,-0.2249 -0.3169,-0.31483 -0.44019,-0.46309 -0.43716,-0.5257 0.006,-0.11252 -0.57127,-0.5769 -0.70702,-0.56927 -0.0711,0.003 -0.12674,-0.0464 -0.12356,-0.11174 0.009,-0.177 -0.30452,-0.41815 -0.5267,-0.40567 -0.16052,0.008 -0.20189,0.16578 -0.23746,0.89967 -0.0251,0.51843 0.009,0.88586 0.0806,0.88181 0.0733,-0.004 0.10403,0.39821 0.0756,0.98634 -0.0264,0.54629 0.006,1.02104 0.0723,1.05499 0.0661,0.0338 0.10113,0.45871 0.0776,0.94391 -0.025,0.51407 0.009,0.87929 0.081,0.87525 0.0738,-0.004 0.10303,0.42007 0.0724,1.05192 -0.0406,0.83874 -0.0134,1.07001 0.13114,1.1124 0.10036,0.0294 0.18014,0.1017 0.17728,0.16067 -0.002,0.0589 -0.0923,0.18682 -0.19883,0.28421 -0.11383,0.10414 -0.20344,0.37986 -0.21745,0.66907 -0.0132,0.27058 -0.0795,0.49511 -0.14756,0.49894 -0.068,0.003 -0.12733,0.0819 -0.13176,0.17358 -0.0111,0.22908 -0.82389,0.27474 -0.91068,0.0512 -0.0346,-0.0895 -0.14838,-0.15784 -0.25257,-0.15197 -0.10415,0.005 -0.18702,-0.0393 -0.18406,-0.10053 0.003,-0.0612 -0.0545,-0.10762 -0.12715,-0.10372 -0.14416,0.007 -0.47274,-0.24619 -0.46714,-0.36153 0.004,-0.0927 -0.31091,-0.37029 -0.41412,-0.3645 -0.13929,0.007 -0.41771,-0.28759 -0.41441,-0.43967 0.003,-0.17003 -0.26547,-0.51927 -0.39463,-0.51201 -0.13521,0.007 -0.42676,-0.27795 -0.42027,-0.41165 0.003,-0.0653 -0.0498,-0.11592 -0.11794,-0.11207 -0.068,0.003 -0.11976,-0.0746 -0.11492,-0.17436 0.004,-0.0997 -0.17806,-0.33537 -0.40641,-0.52367 -0.22836,-0.18832 -0.41139,-0.42076 -0.40676,-0.51651 0.004,-0.0957 -0.0473,-0.17096 -0.11526,-0.16715 -0.068,0.003 -0.12007,-0.068 -0.11561,-0.15969 0.004,-0.0916 -0.0516,-0.16331 -0.12451,-0.15919 -0.18306,0.01 -0.47128,-0.25898 -0.46742,-0.43668 0.003,-0.17003 -0.26546,-0.51927 -0.39462,-0.51202 -0.17956,0.01 -0.42568,-0.30002 -0.4149,-0.52273 0.009,-0.18895 -0.0663,-0.22577 -0.4218,-0.20582 l -0.43297,0.0243 -0.0297,0.61102 c -0.0228,0.46907 0.0135,0.6086 0.15594,0.60059 0.14938,-0.008 0.17723,0.16166 0.14281,0.87178 -0.0235,0.48519 0.0114,0.90996 0.0776,0.94389 0.0662,0.0338 0.10482,0.38372 0.0857,0.77727 -0.0195,0.40297 0.0194,0.71252 0.089,0.70859 0.0707,-0.003 0.10761,0.32634 0.0861,0.77072 -0.0215,0.44439 0.0153,0.77468 0.086,0.77072 0.0721,-0.003 0.10593,0.36116 0.081,0.87524 -0.0235,0.48521 -0.0999,0.91622 -0.16978,0.95779 -0.0699,0.0416 -0.13068,0.15123 -0.13516,0.24365 -0.004,0.0924 -0.0911,0.24388 -0.19257,0.33664 -0.21039,0.19239 -0.69963,0.25346 -0.69153,0.0863 0.003,-0.0612 -0.13377,-0.10329 -0.30386,-0.0937 -0.1701,0.01 -0.30685,-0.0326 -0.30387,-0.0937 0.003,-0.0612 -0.10594,-0.10488 -0.24194,-0.0975 -0.13608,0.007 -0.24482,-0.0398 -0.24164,-0.10509 0.007,-0.13331 -0.28492,-0.41926 -0.41952,-0.4117 -0.10917,0.006 -0.64416,-0.54364 -0.6389,-0.65655 0.002,-0.0458 -0.0543,-0.0801 -0.12543,-0.0759 -0.13792,0.007 -0.71243,-0.45757 -0.70686,-0.57253 0.006,-0.11304 -0.32493,-0.36665 -0.46729,-0.35865 -0.0729,0.004 -0.12835,-0.0801 -0.12328,-0.18694 0.0112,-0.22717 -0.48205,-0.77617 -0.68652,-0.76467 -0.0772,0.004 -0.1366,-0.0671 -0.13215,-0.15877 0.004,-0.0916 -0.0476,-0.16352 -0.11563,-0.1597 -0.068,0.003 -0.11989,-0.0716 -0.11526,-0.16762 0.01,-0.19952 -0.26506,-0.47576 -0.46214,-0.46469 -0.0729,0.003 -0.12956,-0.0562 -0.12562,-0.13468 0.003,-0.0783 -0.10103,-0.20792 -0.23276,-0.28837 -0.13182,-0.0804 -0.23612,-0.21914 -0.2318,-0.30823 0.004,-0.0891 -0.17004,-0.30513 -0.38749,-0.48004 -0.39758,-0.31986 -0.62572,-0.80366 -0.38528,-0.81717 0.0707,-0.003 0.2377,-0.12069 0.37113,-0.25938 0.22985,-0.23893 0.24204,-0.2409 0.23219,-0.0375 -0.006,0.11807 0.0975,0.28046 0.22927,0.36089 0.13181,0.0804 0.23759,0.18879 0.23507,0.24075 -0.002,0.052 0.0618,0.15648 0.14294,0.23223 0.0812,0.0758 0.24893,0.26532 0.37284,0.42132 0.3851,0.48476 0.61459,0.69089 0.76014,0.6827 0.0771,-0.004 0.13594,0.0797 0.13088,0.18653 -0.0112,0.22717 0.48204,0.77615 0.6865,0.76466 0.0772,-0.004 0.13661,0.0671 0.13216,0.15877 -0.004,0.0916 0.0476,0.16352 0.11563,0.1597 0.068,-0.003 0.11997,0.0702 0.11541,0.16452 -0.004,0.0943 0.28442,0.43143 0.64221,0.74915 0.35779,0.31775 0.64833,0.62333 0.64562,0.67907 -0.002,0.0558 0.0786,0.0967 0.18065,0.0909 0.10203,-0.005 0.18161,0.0687 0.17707,0.16477 -0.0111,0.22706 0.62546,0.78728 0.87832,0.77308 0.10727,-0.006 0.19266,0.0389 0.18968,0.10011 -0.003,0.0612 0.10593,0.10489 0.24193,0.0975 0.20029,-0.0112 0.251,-0.0879 0.26625,-0.40272 0.01,-0.21385 -0.0369,-0.38571 -0.10492,-0.38186 -0.0742,0.004 -0.10215,-0.43742 -0.0699,-1.10399 0.0323,-0.66657 0.004,-1.10817 -0.0699,-1.10399 -0.0697,0.003 -0.10861,-0.30563 -0.089,-0.7086 0.0191,-0.39356 -0.0195,-0.74333 -0.0856,-0.77728 -0.0662,-0.0338 -0.10615,-0.35512 -0.0888,-0.71378 0.0209,-0.43149 -0.0284,-0.70491 -0.14587,-0.80828 -0.22373,-0.19692 -0.14843,-2.61109 0.0819,-2.62403 0.0771,-0.004 0.257,-0.12661 0.39987,-0.27174 0.17621,-0.179 0.27547,-0.22022 0.30851,-0.12822 0.0271,0.0745 0.15593,0.12973 0.28689,0.1224 0.25931,-0.0145 2.0147,1.47076 2.00381,1.69553 -0.003,0.0757 0.10125,0.20341 0.23297,0.28384 0.13181,0.0804 0.23655,0.21021 0.23276,0.28837 -0.003,0.0783 0.0766,0.13743 0.17867,0.13172 0.10314,-0.005 0.18078,0.0883 0.17479,0.21176 -0.006,0.1222 0.0449,0.21906 0.11293,0.21524 0.068,-0.003 0.12065,0.0562 0.11691,0.13333 -0.003,0.0771 0.12784,0.22631 0.29235,0.33147 0.16455,0.1051 0.29586,0.25918 0.29183,0.34226 -0.003,0.0831 0.0483,0.14798 0.11636,0.14415 0.068,-0.003 0.12115,0.0454 0.11807,0.10925 -0.003,0.0639 0.12747,0.23331 0.29016,0.37651 0.1627,0.14319 0.29326,0.31302 0.29014,0.37738 -0.003,0.0644 0.15454,0.24774 0.35036,0.40751 0.19583,0.15976 0.35338,0.34541 0.35012,0.41255 -0.003,0.0671 0.0776,0.11736 0.17964,0.11162 0.10203,-0.005 0.18179,0.0669 0.17726,0.16087 -0.0138,0.28457 0.41353,0.60312 0.73119,0.54508 0.33299,-0.0609 0.45611,-0.36684 0.28341,-0.70436 -0.0642,-0.12549 -0.13189,-0.66356 -0.15036,-1.19569 -0.0185,-0.53216 -0.0843,-0.96471 -0.1462,-0.96122 -0.0619,0.003 -0.0932,-0.39361 -0.0696,-0.88242 0.0251,-0.51845 -0.009,-0.88585 -0.0806,-0.88181 -0.0733,0.004 -0.10392,-0.4004 -0.0753,-0.9929 0.0286,-0.5925 -0.002,-0.99701 -0.0753,-0.9929 -0.0746,0.004 -0.10125,-0.45594 -0.0671,-1.15953 0.0341,-0.70358 0.1056,-1.16924 0.18024,-1.17343 0.068,-0.003 0.12873,-0.11051 0.13487,-0.23707 0.0311,-0.64107 0.86314,-0.77939 1.43831,-0.23907 0.21423,0.20123 0.47675,0.36097 0.58337,0.35498 0.10661,-0.006 0.19143,0.0391 0.18849,0.10022 -0.003,0.0611 0.078,0.10641 0.18017,0.10064 0.10326,-0.005 0.18077,0.0883 0.17476,0.21248 -0.007,0.12653 0.34703,0.54419 0.81676,0.96595 0.45518,0.40867 0.82481,0.80034 0.82142,0.87041 -0.003,0.07 0.1017,0.19319 0.23348,0.27362 0.13181,0.0804 0.23759,0.18876 0.23507,0.24075 -0.007,0.1339 0.30803,0.39348 0.46602,0.38461 0.0729,-0.003 0.12769,0.0925 0.12174,0.21476 -0.006,0.1222 0.0449,0.21904 0.11294,0.21523 0.068,-0.003 0.12107,0.0468 0.11795,0.11209 -0.007,0.14477 0.28965,0.41897 0.44392,0.4103 0.0614,-0.003 0.18007,0.1145 0.26371,0.26217 0.0836,0.14765 0.1983,0.26584 0.25485,0.26266 0.0565,-0.003 0.0991,0.0707 0.0945,0.16437 -0.004,0.0936 0.0739,0.19418 0.17422,0.22363 0.10036,0.0294 0.17911,0.12315 0.17496,0.20827 -0.004,0.0979 0.12889,0.14711 0.36362,0.13391 0.35738,-0.0201 0.37203,-0.0394 0.39535,-0.52077 0.0134,-0.27496 -0.0314,-0.49681 -0.0995,-0.49297 -0.0722,0.003 -0.10571,-0.36338 -0.0806,-0.88182 0.0251,-0.51843 -0.009,-0.88585 -0.0806,-0.8818 -0.0699,0.003 -0.10839,-0.31044 -0.0883,-0.7231 0.0243,-0.50081 -0.0203,-0.7791 -0.1421,-0.88625 -0.11785,-0.10372 -0.16648,-0.37765 -0.14556,-0.81485 0.0177,-0.36502 -0.0232,-0.65553 -0.0918,-0.6517 -0.0764,0.004 -0.0958,-0.56965 -0.0506,-1.50072 0.0562,-1.15855 0.11578,-1.54677 0.25748,-1.67635 0.20851,-0.19067 1.07091,-0.27764 1.06264,-0.10718 -0.003,0.0612 0.0822,0.1062 0.18902,0.10022 0.22218,-0.0124 0.53526,0.22869 0.5267,0.40567 -0.003,0.0653 0.0524,0.11578 0.12356,0.11173 0.19041,-0.0109 0.71142,0.47878 0.70262,0.66011 -0.003,0.0859 0.12704,0.24218 0.29159,0.34733 0.16454,0.1051 0.2972,0.23159 0.2948,0.28097 -0.002,0.0493 0.11505,0.20306 0.26103,0.34147 0.39619,0.37577 0.5588,0.56149 0.55528,0.63422 -0.002,0.0358 0.12995,0.18245 0.29264,0.32567 0.1627,0.14319 0.2938,0.3018 0.29133,0.35248 -0.002,0.0507 0.23467,0.31285 0.52693,0.58263 0.29227,0.26977 0.52905,0.53885 0.52618,0.59799 -0.0116,0.23963 0.92853,0.93272 1.24135,0.91516 0.28206,-0.0158 0.32115,-0.0629 0.33781,-0.40676 0.01,-0.21385 -0.0369,-0.38569 -0.10493,-0.38188 -0.0721,0.003 -0.10571,-0.36336 -0.0806,-0.88179 0.0251,-0.51844 -0.009,-0.88587 -0.0806,-0.88182 -0.0696,0.003 -0.10861,-0.30327 -0.0893,-0.70155 0.024,-0.49424 -0.0197,-0.74718 -0.14452,-0.83638 -0.12186,-0.0872 -0.16874,-0.33595 -0.14722,-0.78083 0.0175,-0.36125 -0.0236,-0.64986 -0.0921,-0.64602 -0.0769,0.004 -0.0932,-0.62258 -0.0429,-1.65946 0.0503,-1.03687 0.12749,-1.66903 0.20446,-1.67336 0.068,-0.003 0.12733,-0.0819 0.13177,-0.17359 0.0164,-0.33705 0.71126,-0.23219 1.20383,0.18165 0.25493,0.2142 0.56442,0.46134 0.68773,0.54922 0.12332,0.0879 0.32833,0.28825 0.45557,0.44527 0.12724,0.15702 0.30163,0.28154 0.38753,0.27672 0.0859,-0.005 0.15263,0.0661 0.14813,0.15785 -0.004,0.0916 0.0476,0.16351 0.11562,0.15969 0.068,-0.003 0.11971,0.0754 0.11485,0.17625 -0.006,0.10075 0.17774,0.34216 0.40579,0.53648 0.22808,0.19433 0.41116,0.42589 0.40686,0.51461 -0.004,0.0887 0.0478,0.15815 0.11589,0.15434 0.068,-0.003 0.12106,0.0468 0.11794,0.11207 -0.008,0.15382 0.29356,0.41875 0.46484,0.40915 0.0729,-0.004 0.12758,0.0948 0.1215,0.2198 -0.0115,0.23644 0.47374,0.74389 0.69916,0.73122 0.0711,-0.003 0.1244,0.0947 0.11834,0.21933 -0.0125,0.25737 0.85207,1.05566 1.12657,1.04024 0.14682,-0.008 0.19114,-0.22817 0.23711,-1.17662 0.0341,-0.7036 0.008,-1.16374 -0.0671,-1.15954 -0.0716,0.003 -0.1066,-0.34601 -0.0832,-0.82975 0.0311,-0.64125 -0.002,-0.84918 -0.14192,-0.89021 -0.10035,-0.0295 -0.17666,-0.17316 -0.16957,-0.31938 0.0117,-0.24102 0.0649,-0.26878 0.56955,-0.29715 0.47421,-0.0267 0.55827,-0.0643 0.56745,-0.25345 0.006,-0.12343 0.0932,-0.22681 0.19632,-0.2326 0.10203,-0.005 0.18794,-0.0595 0.19083,-0.11944 0.003,-0.0599 0.14598,-0.14816 0.31792,-0.19605 0.17196,-0.0478 0.31482,-0.13164 0.31746,-0.18614 0.002,-0.0544 0.11614,-0.1053 0.25223,-0.11287 0.13609,-0.007 0.24984,-0.0638 0.2528,-0.12499 0.003,-0.0611 0.14456,-0.11891 0.31465,-0.12846 0.1701,-0.01 0.31169,-0.0673 0.31466,-0.12846 0.003,-0.061 0.10604,-0.11675 0.22914,-0.12367 0.12309,-0.006 0.33538,-0.092 0.47179,-0.1892 0.13642,-0.0971 0.34553,-0.18366 0.46469,-0.19232 0.11916,-0.008 0.21906,-0.0658 0.22204,-0.12678 0.003,-0.0612 0.14455,-0.11892 0.31464,-0.12846 0.17011,-0.01 0.31169,-0.0673 0.31466,-0.12845 0.003,-0.0612 0.11073,-0.11703 0.23957,-0.12425 0.12878,-0.007 0.26986,-0.0899 0.31346,-0.18378 0.0436,-0.0938 0.19237,-0.17699 0.33057,-0.18476 0.13823,-0.007 0.2537,-0.0643 0.25668,-0.12523 0.003,-0.0612 0.12069,-0.11755 0.26162,-0.12551 0.14095,-0.007 0.33921,-0.0904 0.44066,-0.18299 0.21041,-0.1924 0.2691,-0.63241 0.083,-0.62194 -0.068,0.003 -0.11669,-0.13768 -0.10817,-0.31444 0.009,-0.18321 -0.0629,-0.34443 -0.1667,-0.37501 -0.10036,-0.0294 -0.17754,-0.15506 -0.17151,-0.27919 0.006,-0.12415 -0.0447,-0.22255 -0.11276,-0.21874 -0.068,0.003 -0.11766,-0.11802 -0.11028,-0.27078 0.008,-0.15275 -0.0422,-0.27462 -0.11028,-0.27078 -0.068,0.003 -0.11885,-0.0931 -0.11293,-0.21524 0.006,-0.1222 -0.0449,-0.21905 -0.11294,-0.21524 -0.068,0.003 -0.12008,-0.068 -0.11562,-0.1597 0.007,-0.14308 0.39294,-0.18825 2.7296,-0.31952 1.73189,-0.0974 2.71958,-0.11249 2.71614,-0.0418 -0.003,0.0655 0.43877,0.0866 1.07699,0.0515 1.51042,-0.0831 2.00596,-0.025 1.99343,0.23367 -0.006,0.11419 -0.0939,0.21222 -0.19563,0.21807 z"
       id="path5086-7-0"
       inkscape:connector-curvature="0"
       sodipodi:nodetypes="ccscsccscsccsscssccccssccscscsssscsscccssssccssscscsscssssccscscscsssssscsscssssscscscsccscscsscssscsscccsscssssssccssssscscssscscscccscsssccsccssssccssscssssscscsccscscscsccsscscccscscsssssccsccccccssssccsscssscsscscssccccssssssscssssssscssssscsscsccsssscscccssccssssscscccssscscsscscscsssscscsssssssscscsssssscccsssscssssssssccscccccsccsssscccscscccscsscsscc" />
    <text
       xml:space="preserve"
       style="font-style:normal;font-weight:normal;font-size:16.71127129px;line-height:125%;font-family:sans-serif;letter-spacing:0px;word-spacing:0px;fill:#000000;fill-opacity:1;stroke:none;stroke-width:1px;stroke-linecap:butt;stroke-linejoin:miter;stroke-opacity:1"
       x="52.103718"
       y="293.23965"
       id="text6418"
       sodipodi:linespacing="125%"><tspan
         sodipodi:role="line"
         id="tspan6420"
         x="52.103718"
         y="293.23965"
         style="-inkscape-font-specification:'Lucida Calligraphy Italic';font-family:'Lucida Calligraphy';font-weight:normal;font-style:italic;font-stretch:normal;font-variant:normal">hw<tspan
   style="font-size:10px;-inkscape-font-specification:'Lucida Calligraphy Italic';font-family:'Lucida Calligraphy';font-weight:normal;font-style:italic;font-stretch:normal;font-variant:normal"
   id="tspan6442">1</tspan></tspan></text>
    <text
       xml:space="preserve"
       style="font-style:normal;font-weight:normal;font-size:11.25680637px;line-height:125%;font-family:sans-serif;letter-spacing:0px;word-spacing:0px;fill:#000000;fill-opacity:1;stroke:none;stroke-width:1px;stroke-linecap:butt;stroke-linejoin:miter;stroke-opacity:1"
       x="186.53476"
       y="295.995"
       id="text6418-3"
       sodipodi:linespacing="125%"><tspan
         sodipodi:role="line"
         id="tspan6420-1"
         x="186.53476"
         y="295.995"
         style="font-style:italic;font-variant:normal;font-weight:normal;font-stretch:normal;font-family:'Lucida Calligraphy';-inkscape-font-specification:'Lucida Calligraphy Italic'">hw<tspan
   style="font-style:italic;font-variant:normal;font-weight:normal;font-stretch:normal;font-size:6.73605633px;font-family:'Lucida Calligraphy';-inkscape-font-specification:'Lucida Calligraphy Italic'"
   id="tspan6440">2</tspan></tspan></text>
    <text
       xml:space="preserve"
       style="font-style:normal;font-weight:normal;font-size:17.56591225px;line-height:125%;font-family:sans-serif;letter-spacing:0px;word-spacing:0px;fill:#000000;fill-opacity:1;stroke:none;stroke-width:1px;stroke-linecap:butt;stroke-linejoin:miter;stroke-opacity:1"
       x="145.44684"
       y="139.07257"
       id="text6444"
       sodipodi:linespacing="125%"><tspan
         sodipodi:role="line"
         id="tspan6446"
         x="145.44684"
         y="139.07257">e-</tspan></text>
    <circle
       style="fill:#3262ff;fill-opacity:1;stroke:url(#linearGradient4949-7);stroke-width:0.93988442;stroke-miterlimit:4;stroke-dasharray:none;stroke-dashoffset:0;stroke-opacity:0.96499999"
       id="path4943-54"
       cx="132.14285"
       cy="120.21935"
       r="7.2729149" />
    <path
       style="fill:#ff9900;fill-opacity:1"
       d="m 468.79805,308.20022 c -0.0682,-0.14415 -0.18043,-0.24259 -0.24944,-0.21864 -0.069,0.024 -0.49984,-0.0998 -0.95747,-0.27503 -0.45763,-0.17519 -0.90798,-0.29211 -1.0008,-0.25983 -0.0928,0.0324 -0.52286,-0.13606 -0.95567,-0.37409 -0.45846,-0.25214 -0.94447,-0.37938 -1.16438,-0.30483 -0.20761,0.0704 -0.42445,0.0286 -0.48187,-0.0927 -0.0574,-0.12135 -0.38075,-0.30598 -0.71853,-0.41023 -0.33779,-0.10426 -0.79408,-0.28692 -1.014,-0.40591 -0.21991,-0.11901 -0.49586,-0.18269 -0.6132,-0.14155 -0.11735,0.0411 -0.25055,-0.004 -0.29603,-0.0999 -0.0454,-0.0961 -0.16814,-0.14481 -0.27263,-0.10815 -0.10445,0.0366 -0.5448,-0.12988 -0.9785,-0.37 -0.43372,-0.24014 -0.89469,-0.3994 -1.02439,-0.35393 -0.21011,0.0736 -2.16929,-0.74484 -2.26449,-0.94604 -0.0209,-0.0442 0.12495,-0.13698 0.32331,-0.20701 0.43946,-0.1541 1.38839,-1.11242 1.29567,-1.30843 -0.0368,-0.0777 0.0835,-0.19378 0.26711,-0.25825 0.18367,-0.0644 0.29671,-0.19575 0.25126,-0.29184 -0.0455,-0.0961 0.10512,-0.24063 0.33472,-0.32111 0.22958,-0.0805 0.38021,-0.22499 0.33473,-0.32112 -0.0455,-0.096 0.0661,-0.22694 0.24806,-0.29072 0.45507,-0.15956 0.26169,-1.07723 -0.2605,-1.23621 -0.20609,-0.0627 -0.4543,-0.28232 -0.55158,-0.488 -0.0973,-0.20566 -0.25204,-0.3476 -0.34386,-0.31542 -0.0918,0.0322 -0.24138,-0.0987 -0.33234,-0.29095 -0.091,-0.19222 -0.24053,-0.32313 -0.33234,-0.29095 -0.0918,0.0321 -0.27973,-0.17988 -0.41761,-0.4712 -0.14652,-0.30968 -0.37446,-0.53504 -0.54874,-0.54246 -0.16392,-0.007 -0.38708,-0.20096 -0.49587,-0.431 -0.10884,-0.22998 -0.27299,-0.39184 -0.36501,-0.35944 -0.0918,0.0322 -0.24138,-0.0987 -0.33235,-0.29096 -0.091,-0.19221 -0.24052,-0.32313 -0.33234,-0.29095 -0.0919,0.0322 -0.25998,-0.13805 -0.37366,-0.37834 -0.12862,-0.27183 -0.30135,-0.40368 -0.45715,-0.34907 -0.15587,0.0546 -0.32855,-0.0772 -0.45716,-0.34907 -0.11368,-0.24029 -0.28185,-0.41053 -0.37367,-0.37835 -0.0918,0.0322 -0.27858,-0.17737 -0.41499,-0.46572 -0.13644,-0.28834 -0.31797,-0.49974 -0.4034,-0.4698 -0.0854,0.03 -0.26308,-0.11404 -0.39475,-0.32001 -0.22467,-0.35138 -0.33086,-0.34603 -1.72424,0.0873 -0.94532,0.29398 -1.45362,0.52775 -1.39894,0.64332 0.0522,0.11036 -0.43421,0.36397 -1.23998,0.64644 -0.72923,0.25569 -1.33511,0.55982 -1.34639,0.67582 -0.0113,0.11599 -0.35419,0.32793 -0.762,0.47093 -0.40783,0.14299 -0.77871,0.18135 -0.82418,0.0852 -0.0455,-0.0961 -0.31347,-0.0938 -0.59551,0.005 -0.28207,0.0989 -0.67332,0.1051 -0.86948,0.0138 -0.69217,-0.32219 -1.23619,-2.12787 -0.69794,-2.31661 0.17281,-0.0605 0.5225,-1.16921 0.4303,-1.36406 -0.0475,-0.10052 0.045,-0.22889 0.2057,-0.28532 0.34134,-0.11989 0.86221,-1.16054 0.72555,-1.44938 -0.0516,-0.10894 0.019,-0.23762 0.15672,-0.2859 0.13773,-0.0483 0.21323,-0.16647 0.16778,-0.26257 -0.0455,-0.0961 0.0351,-0.21603 0.17898,-0.26648 0.14389,-0.0505 0.37945,-0.45395 0.52342,-0.89662 0.14395,-0.44268 0.35798,-0.83862 0.47562,-0.87986 0.11761,-0.0413 0.33901,-0.43979 0.49202,-0.88562 0.15297,-0.44584 0.3684,-0.84238 0.47872,-0.88119 0.27056,-0.0953 0.75123,-1.16958 0.63403,-1.41728 -0.0516,-0.10895 0.019,-0.23763 0.15673,-0.28591 0.13773,-0.0483 0.21323,-0.16646 0.16777,-0.26255 -0.0454,-0.0961 0.0405,-0.21796 0.19109,-0.27076 0.32777,-0.11493 0.48254,-0.74279 0.28862,-1.17084 -0.12261,-0.27065 -0.32023,-0.24427 -1.64209,0.21921 -0.8905,0.31223 -1.46902,0.59809 -1.42002,0.70165 0.0467,0.0986 -0.39213,0.34123 -1.00785,0.55711 -0.81532,0.28588 -1.08347,0.45702 -1.0626,0.6782 0.0213,0.22574 -0.26216,0.39754 -1.19661,0.72517 -0.6735,0.23615 -1.23377,0.52428 -1.24504,0.64029 -0.0113,0.11599 -0.57515,0.40541 -1.25306,0.6431 -0.6779,0.23769 -1.24177,0.52709 -1.25304,0.6431 -0.0268,0.27567 -1.97904,0.96017 -2.08709,0.73179 -0.0455,-0.0961 -0.3081,-0.0957 -0.58359,8.7e-4 -0.32631,0.11442 -0.54269,0.0873 -0.62081,-0.0778 -0.0659,-0.13941 -0.28949,-0.28734 -0.4964,-0.32911 -0.20706,-0.0416 -0.28919,-0.10907 -0.18251,-0.14987 0.19038,-0.0729 0.27597,-1.19542 0.11678,-1.53187 -0.0896,-0.18939 0.37307,-1.29408 0.57129,-1.36398 0.0688,-0.0243 0.0693,-0.16209 10e-4,-0.30625 -0.0689,-0.14563 0.0244,-0.31416 0.2099,-0.37921 0.18367,-0.0644 0.30302,-0.18244 0.26514,-0.26238 -0.0378,-0.0799 0.0693,-0.3163 0.23809,-0.52539 0.16874,-0.20907 0.2732,-0.45113 0.23216,-0.53787 -0.11074,-0.23407 0.13402,-0.81203 0.38419,-0.90717 0.29847,-0.11352 0.60367,-0.70784 0.48847,-0.95128 -0.0519,-0.10952 0.002,-0.23288 0.11935,-0.27407 0.1175,-0.0412 0.24746,-0.27017 0.2889,-0.50878 0.0414,-0.23865 0.17277,-0.46806 0.29186,-0.50982 0.11908,-0.0418 0.3417,-0.44069 0.49467,-0.88654 0.15296,-0.44584 0.36306,-0.84039 0.46688,-0.8768 0.10382,-0.0364 0.3643,-0.54031 0.57883,-1.11979 0.21452,-0.57948 0.45678,-1.077 0.53834,-1.1056 0.0816,-0.0286 0.0553,-0.24858 -0.0584,-0.48888 -0.20326,-0.42959 -0.22897,-0.42906 -1.54245,0.0315 -0.77918,0.27322 -1.30128,0.54117 -1.25304,0.64311 0.0467,0.0986 -0.39213,0.34123 -1.00784,0.55711 -0.81533,0.28588 -1.08348,0.45703 -1.06261,0.67819 0.0215,0.22839 -0.27255,0.40118 -1.28996,0.75792 -0.76726,0.26902 -1.28331,0.53509 -1.23518,0.63683 0.0482,0.10193 -0.47388,0.36988 -1.25305,0.64309 -0.77918,0.2732 -1.30128,0.54116 -1.25304,0.6431 0.046,0.0971 -0.36261,0.33083 -0.91913,0.52601 -0.55656,0.19514 -1.03855,0.2736 -1.08449,0.1765 -0.0455,-0.096 -0.21533,-0.13115 -0.3775,-0.0779 -0.50967,0.16749 -1.08534,-0.13386 -1.3585,-0.71117 -0.14279,-0.30177 -0.18954,-0.57324 -0.10389,-0.60327 0.0857,-0.0301 0.12711,-0.24072 0.0922,-0.46817 -0.0349,-0.22747 0.18226,-1.07688 0.48266,-1.88759 0.30039,-0.8107 0.50651,-1.55784 0.45803,-1.6603 -0.0485,-0.10245 0.0686,-0.24126 0.26028,-0.30842 0.2023,-0.0709 0.53364,-0.65697 0.79019,-1.39765 0.24299,-0.70152 0.54822,-1.3128 0.67829,-1.35841 0.13007,-0.0456 0.3309,-0.4369 0.44627,-0.86956 0.11537,-0.43266 0.26304,-0.80533 0.32816,-0.82817 0.0651,-0.0229 0.1763,-0.17683 0.24774,-0.34156 0.27865,-0.64626 0.42508,-0.91308 0.51918,-0.94607 0.16911,-0.0593 0.51616,-1.1706 0.42543,-1.36237 -0.0476,-0.10045 -0.006,-0.21091 0.0925,-0.24541 0.26601,-0.0933 0.43826,-0.69003 0.28977,-1.00389 -0.10727,-0.22678 -0.36268,-0.193 -1.46567,0.19374 -0.77919,0.27321 -1.30129,0.54116 -1.25306,0.6431 0.049,0.10347 -0.52624,0.38826 -1.41016,0.69819 -0.82107,0.28788 -1.50207,0.61835 -1.51336,0.73436 -0.0113,0.11599 -0.61715,0.42014 -1.34638,0.67583 -0.77261,0.2709 -1.29138,0.53781 -1.2432,0.63964 0.0494,0.10427 -0.5591,0.39977 -1.50874,0.73275 -1.26058,0.44199 -1.58562,0.6195 -1.56351,0.85382 0.0154,0.1627 -0.0445,0.32124 -0.1331,0.35228 -0.0885,0.031 -0.32955,-0.022 -0.53551,-0.11785 -0.22012,-0.10246 -0.67926,-0.0674 -1.1139,0.085 -0.40669,0.14259 -0.77663,0.18063 -0.82212,0.0845 -0.0454,-0.0961 -0.19541,-0.13521 -0.33313,-0.0869 -0.34429,0.12071 -0.88756,-1.02746 -0.60869,-1.28645 0.1118,-0.1034 0.14587,-0.30882 0.0762,-0.45601 -0.0696,-0.14718 -0.0515,-0.29395 0.0404,-0.32615 0.0918,-0.0322 0.12675,-0.14314 0.0784,-0.24578 -0.0964,-0.20363 0.0862,-0.83064 0.25955,-0.89142 0.13934,-0.0488 0.36398,-0.67072 0.29499,-0.81652 -0.0931,-0.19676 0.17949,-0.77579 0.40566,-0.86181 0.25288,-0.0962 0.61024,-0.69394 0.5239,-0.8764 -0.0904,-0.19098 0.15997,-0.78311 0.36089,-0.85355 0.0983,-0.0345 0.14174,-0.14133 0.0962,-0.23749 -0.0454,-0.0961 0.0399,-0.21774 0.1898,-0.27028 0.14983,-0.0526 0.39026,-0.45774 0.53423,-0.90041 0.14396,-0.44268 0.3795,-0.84616 0.52342,-0.89662 0.14388,-0.0505 0.22444,-0.17039 0.17898,-0.26648 -0.0454,-0.0961 0.03,-0.21427 0.16777,-0.26256 0.13774,-0.0483 0.2106,-0.17207 0.16183,-0.27509 -0.12234,-0.25861 0.10593,-0.83618 0.37022,-0.9367 0.25288,-0.0962 0.61024,-0.69394 0.5239,-0.87639 -0.11998,-0.25367 0.19314,-0.79474 0.52787,-0.9121 0.28395,-0.0996 0.29406,-0.23073 0.0565,-0.73289 l -0.2894,-0.61163 -0.91832,0.32199 c -0.70497,0.24718 -0.8895,0.38288 -0.79429,0.5841 0.0998,0.21102 -0.1346,0.35282 -1.20186,0.72702 -0.72923,0.25569 -1.3351,0.55982 -1.34638,0.67582 -0.0113,0.11599 -0.50444,0.38064 -1.09594,0.58801 -0.60565,0.21236 -1.03932,0.45342 -0.99275,0.55183 0.0472,0.0999 -0.4182,0.3504 -1.08608,0.58456 -0.66787,0.23416 -1.13333,0.48469 -1.08608,0.58455 0.0482,0.10185 -0.47056,0.36877 -1.2432,0.63964 -0.72924,0.2557 -1.40953,0.40254 -1.51176,0.32633 -0.10224,-0.0762 -0.29951,-0.0987 -0.43839,-0.05 -0.13892,0.0487 -0.41302,0.0138 -0.60917,-0.0775 -0.4069,-0.1894 -0.78342,-0.86045 -0.53223,-0.94851 0.0918,-0.0322 0.0739,-0.25514 -0.0398,-0.49542 -0.11369,-0.24029 -0.13158,-0.46322 -0.0397,-0.49543 0.0919,-0.0322 0.0926,-0.21582 0.002,-0.40804 -0.091,-0.19221 -0.0849,-0.37772 0.0135,-0.41222 0.20037,-0.0702 0.45137,-0.66235 0.36139,-0.8525 -0.073,-0.1542 0.42444,-1.25613 0.59403,-1.31593 0.0688,-0.0243 0.0862,-0.12631 0.0387,-0.22682 -0.0922,-0.19483 0.25752,-1.30348 0.43031,-1.36406 0.16989,-0.0596 0.35035,-0.68881 0.25521,-0.88991 -0.0487,-0.10296 0.0429,-0.23343 0.20347,-0.28992 0.34133,-0.11991 0.86222,-1.16053 0.72556,-1.44936 -0.0516,-0.10895 0.019,-0.23763 0.15673,-0.28591 0.13772,-0.0483 0.21323,-0.16647 0.16777,-0.26256 -0.0455,-0.0961 0.0354,-0.21615 0.17967,-0.26676 0.29988,-0.10514 0.5463,-0.66739 0.4146,-0.94578 -0.0487,-0.10297 0.007,-0.22093 0.12503,-0.26209 0.11751,-0.0412 0.24746,-0.27017 0.28892,-0.50878 0.0414,-0.23865 0.18487,-0.47231 0.31879,-0.51927 0.13389,-0.047 0.35035,-0.42807 0.48094,-0.84697 0.23883,-0.76594 0.81864,-1.38471 0.97935,-1.04508 0.0472,0.0999 0.31716,0.2717 0.5998,0.38184 0.48691,0.18976 0.49695,0.2062 0.19124,0.3134 -0.17747,0.0622 -0.35651,0.30838 -0.39791,0.54705 -0.0414,0.23864 -0.13923,0.4563 -0.21735,0.48369 -0.0781,0.0274 -0.19454,0.18281 -0.25871,0.34537 -0.0642,0.16258 -0.24549,0.51841 -0.40295,0.79074 -0.48932,0.84634 -0.65886,1.30129 -0.56157,1.5069 0.0515,0.10887 -0.0378,0.24414 -0.19841,0.30063 -0.34134,0.11992 -0.86222,1.16054 -0.72555,1.44937 0.0516,0.10894 -0.019,0.23763 -0.15673,0.28591 -0.13774,0.0483 -0.21323,0.16646 -0.16778,0.26256 0.0454,0.0961 -0.0333,0.21541 -0.175,0.26512 -0.14173,0.0497 -0.46962,0.66892 -0.72862,1.37605 -0.25901,0.70714 -0.53948,1.30974 -0.62327,1.33911 -0.0838,0.0294 -0.0965,0.17141 -0.0283,0.31555 0.0682,0.14413 0.005,0.30367 -0.13927,0.35444 -0.34127,0.11966 -0.79464,1.37457 -0.62564,1.73176 0.0717,0.15156 0.0553,0.30191 -0.0366,0.33411 -0.0918,0.0322 -0.0926,0.21581 -0.002,0.40804 0.13387,0.28293 0.27669,0.31047 0.74975,0.1446 0.32141,-0.11269 0.54718,-0.28354 0.50167,-0.37967 -0.0496,-0.10483 0.58519,-0.40892 1.587,-0.76019 1.00179,-0.35125 1.63659,-0.65534 1.58697,-0.76018 -0.0466,-0.0984 0.38708,-0.33949 0.99275,-0.55183 0.59149,-0.20739 1.08467,-0.47199 1.09594,-0.588 0.0113,-0.11599 0.46148,-0.36561 1.00053,-0.55456 0.6485,-0.22739 1.02279,-0.462 1.10644,-0.69356 0.15937,-0.44113 3.76329,-1.77362 3.9172,-1.44832 0.0515,0.10888 0.3372,0.29609 0.63487,0.41605 0.36711,0.14796 0.486,0.26689 0.3697,0.3696 -0.094,0.0837 -0.1,0.30296 -0.0125,0.48796 0.17333,0.36631 -0.98898,3.79173 -1.3268,3.91018 -0.11374,0.0399 -0.24068,0.26779 -0.28213,0.5064 -0.0414,0.23864 -0.17143,0.46759 -0.28891,0.50878 -0.1175,0.0412 -0.1578,0.19282 -0.0896,0.33702 0.0689,0.14563 -0.0244,0.31416 -0.20991,0.37921 -0.18366,0.0644 -0.2967,0.19574 -0.25125,0.29183 0.0454,0.0961 -0.0122,0.20801 -0.12814,0.24866 -0.11593,0.0407 -0.25885,0.32 -0.31758,0.62071 -0.0587,0.30073 -0.20893,0.58261 -0.33381,0.6264 -0.12493,0.0438 -0.18988,0.15824 -0.14442,0.25433 0.0454,0.0961 0.004,0.2023 -0.0919,0.23593 -0.096,0.0337 -0.26937,0.32366 -0.38526,0.64444 -0.11589,0.32078 -0.28984,0.61099 -0.38657,0.6449 -0.0968,0.0339 -0.27482,0.3714 -0.39574,0.74998 -0.12092,0.37858 -0.30241,0.71726 -0.40332,0.75264 -0.10085,0.0354 -0.12762,0.18231 -0.0594,0.32645 0.0682,0.14415 0.008,0.30275 -0.1334,0.35239 -0.4277,0.14997 -0.64721,0.95813 -0.3756,1.38287 0.28471,0.44524 0.80801,0.44057 1.20457,-0.0107 0.14741,-0.16781 0.90122,-0.5869 1.67508,-0.93134 0.77386,-0.34443 1.37315,-0.69782 1.33176,-0.78532 -0.0414,-0.0875 0.52582,-0.36981 1.26047,-0.6274 0.77918,-0.27321 1.30128,-0.54116 1.25305,-0.6431 -0.049,-0.10353 0.52953,-0.38941 1.42002,-0.70164 0.89048,-0.31223 1.46901,-0.59809 1.42002,-0.70163 -0.0498,-0.10545 0.61301,-0.41869 1.67046,-0.78946 1.05746,-0.37078 1.78597,-0.54536 1.83584,-0.43996 0.0455,0.0961 0.23832,0.12018 0.42854,0.0535 0.96349,-0.33783 1.65467,0.78293 1.19476,1.9373 -0.1713,0.42996 -0.25314,0.90498 -0.18187,1.05561 0.0713,0.1506 0.0544,0.3002 -0.0374,0.3324 -0.0918,0.0322 -0.11119,0.17647 -0.0429,0.32066 0.069,0.14591 -0.0245,0.31421 -0.211,0.37961 -0.19019,0.0666 -0.59922,0.82676 -0.94606,1.7579 -0.33606,0.90224 -0.69718,1.67064 -0.80247,1.70757 -0.10529,0.0369 -0.22535,0.26236 -0.26676,0.50101 -0.0414,0.23864 -0.13924,0.45631 -0.21736,0.48369 -0.20124,0.0706 -0.39983,0.68042 -0.29425,0.90359 0.0487,0.10297 -0.0617,0.23992 -0.24537,0.30429 -0.18366,0.0644 -0.29671,0.19574 -0.25124,0.29183 0.0454,0.0961 0.002,0.20299 -0.0962,0.23749 -0.21761,0.0763 -0.44821,0.66904 -0.34509,0.88698 0.0411,0.0867 -0.0634,0.32878 -0.23217,0.53788 -0.16874,0.20907 -0.27587,0.44551 -0.23808,0.52538 0.0378,0.0799 -0.0464,0.18555 -0.18699,0.23485 -0.14064,0.0493 -0.24309,0.2228 -0.22778,0.38547 0.0154,0.1627 -0.0768,0.33253 -0.20466,0.37738 -0.14708,0.0516 -0.14143,0.27421 0.0155,0.6058 0.23887,0.50484 0.27588,0.51449 0.99941,0.26081 0.41324,-0.14489 0.71414,-0.34209 0.66866,-0.43819 -0.0482,-0.10194 0.47389,-0.36989 1.25306,-0.6431 0.77917,-0.27321 1.30128,-0.54116 1.25305,-0.6431 -0.0467,-0.0988 0.39432,-0.34205 1.01453,-0.55947 0.75267,-0.26391 1.1369,-0.49459 1.22363,-0.73465 0.0839,-0.23235 0.45936,-0.46623 1.1163,-0.69702 0.54861,-0.19235 0.95301,-0.42498 0.9072,-0.52183 -0.0511,-0.1079 0.78394,-0.47861 2.18328,-0.96926 1.74122,-0.61053 2.34857,-0.75607 2.62263,-0.62851 0.40323,0.1877 1.03648,1.38294 0.78028,1.47277 -0.0919,0.0322 -0.10847,0.18214 -0.037,0.33315 0.1485,0.31385 -0.0237,0.91061 -0.28977,1.00389 -0.0984,0.0344 -0.14005,0.14487 -0.0924,0.24541 0.12727,0.26898 -0.28943,1.31468 -0.56196,1.41023 -0.12904,0.0453 -0.2827,0.32832 -0.3414,0.62907 -0.0587,0.30072 -0.16747,0.56807 -0.24169,0.59409 -0.0742,0.026 -0.23204,0.2876 -0.35067,0.58137 -0.32209,0.7973 -0.50074,1.14335 -0.61004,1.18168 -0.054,0.0189 -0.19293,0.29686 -0.30883,0.61764 -0.11588,0.32078 -0.27302,0.60508 -0.34917,0.63178 -0.0762,0.0267 -0.32392,0.52615 -0.55058,1.10989 -0.22665,0.58373 -0.4848,1.08682 -0.57366,1.11798 -0.36014,0.12626 -0.83164,1.8997 -0.62255,2.34159 0.18853,0.39845 0.2808,0.42688 0.79758,0.24568 0.32141,-0.1127 0.54717,-0.28354 0.50168,-0.37967 -0.0482,-0.10193 0.47387,-0.36989 1.25305,-0.6431 0.77918,-0.2732 1.30128,-0.54116 1.25305,-0.64309 -0.0465,-0.0983 0.3836,-0.33821 0.98216,-0.54812 0.74283,-0.26045 1.09019,-0.47466 1.14866,-0.70837 0.0571,-0.22824 0.3966,-0.44461 1.06519,-0.67909 0.54293,-0.19037 0.94442,-0.42217 0.89867,-0.51884 -0.0515,-0.1087 0.86346,-0.5065 2.42183,-1.0529 1.55835,-0.54641 2.53574,-0.81214 2.58719,-0.7034 0.0454,0.0961 0.1954,0.1352 0.33313,0.0869 0.50655,-0.17762 0.75886,0.88997 0.43706,1.8494 -0.16655,0.49656 -0.34976,1.09169 -0.40714,1.32251 -0.0574,0.23081 -0.23279,0.64691 -0.38982,0.92466 -0.15703,0.27776 -0.23851,0.6043 -0.1811,0.72566 0.0574,0.12134 -0.008,0.26016 -0.14604,0.30846 -0.13772,0.0483 -0.21323,0.16647 -0.16777,0.26256 0.0455,0.0961 -0.0412,0.21819 -0.19262,0.27132 -0.15143,0.0531 -0.40046,0.46134 -0.55347,0.90715 -0.15298,0.44585 -0.38724,0.84888 -0.52057,0.89563 -0.1333,0.0468 -0.20518,0.16364 -0.15973,0.25974 0.0454,0.0961 0.002,0.20298 -0.0962,0.23748 -0.23116,0.0811 -0.44558,0.67457 -0.3311,0.91652 0.0487,0.10297 -0.0651,0.24111 -0.25297,0.30694 -0.35535,0.1246 -0.81951,1.12926 -0.66884,1.4477 0.0476,0.10045 -0.0668,0.23643 -0.25411,0.30209 -0.3868,0.13563 -1.05769,1.86253 -0.87421,2.2503 0.0981,0.20741 0.44836,0.14018 1.87384,-0.35963 1.05746,-0.37078 1.72034,-0.68406 1.67047,-0.78946 -0.0478,-0.10106 0.4478,-0.36074 1.17481,-0.61566 0.96374,-0.33792 1.25097,-0.51002 1.22957,-0.73674 -0.0153,-0.1627 0.15188,-0.35886 0.37165,-0.4359 0.36223,-0.12702 0.43431,-0.0667 0.77166,0.64625 0.31696,0.66988 0.42156,0.76903 0.70601,0.66929 0.18554,-0.065 0.38906,-5.8e-4 0.45796,0.14504 0.0682,0.14414 0.19774,0.23627 0.28785,0.20466 0.0901,-0.0316 0.30394,0.12264 0.47527,0.34271 0.17133,0.22006 0.37842,0.37669 0.46032,0.34797 0.0819,-0.0288 0.22326,0.1051 0.31415,0.29739 0.091,0.19221 0.24053,0.32313 0.33234,0.29095 0.0919,-0.0322 0.25999,0.13806 0.37367,0.37834 0.11369,0.24029 0.28186,0.41052 0.37367,0.37834 0.0918,-0.0321 0.23428,0.0837 0.31653,0.25756 0.0823,0.17385 0.33215,0.43003 0.55526,0.56931 0.22311,0.13929 0.47314,0.39004 0.55569,0.55718 0.0825,0.1672 0.22514,0.2776 0.31696,0.24542 0.0918,-0.0322 0.25998,0.13805 0.37366,0.37833 0.11369,0.2403 0.28186,0.41053 0.37367,0.37835 0.0918,-0.0322 0.23741,0.0903 0.32348,0.27227 0.0861,0.18192 0.29062,0.33658 0.45454,0.34361 0.16392,0.007 0.37362,0.17252 0.46602,0.36775 0.0924,0.19525 0.24313,0.3286 0.33495,0.29642 0.0919,-0.0322 0.24401,0.10437 0.33827,0.30341 0.0942,0.19912 0.33178,0.43666 0.52788,0.52802 0.4069,0.18941 1.09008,0.0116 0.96568,-0.25127 -0.0454,-0.0961 0.13471,-0.25095 0.40037,-0.34411 0.27533,-0.0966 0.47103,-0.29657 0.45534,-0.46497 -0.0154,-0.16271 0.1247,-0.34934 0.31127,-0.41473 0.18658,-0.0654 0.30197,-0.19756 0.25651,-0.29366 -0.0455,-0.096 0.10513,-0.24063 0.33472,-0.32111 0.22959,-0.0805 0.38022,-0.22499 0.33473,-0.32112 -0.0454,-0.0961 0.0676,-0.22744 0.25125,-0.29183 0.18366,-0.0644 0.29671,-0.19575 0.25125,-0.29184 -0.0455,-0.0961 0.03,-0.21427 0.16777,-0.26256 0.21504,-0.0754 0.50767,0.45587 2.06951,3.75669 1.15759,2.44651 1.75835,3.8658 1.6521,3.90305 -0.0985,0.0345 0.12917,0.68627 0.55469,1.58825 1.00704,2.13469 1.21157,2.88599 0.82271,3.02234 -0.17163,0.0602 -0.3679,-0.009 -0.43612,-0.1527 z"
       id="path5086-5"
       inkscape:connector-curvature="0"
       sodipodi:nodetypes="ccscsccscsccsscssccccssccscscsssscsscccssssccssscscsscssssccscscscsssssscsscssssscscscsccscscsscssscsscccsscssssssccssssscscssscscscccscsssccsccssssccssscssssscscsccscscscsccsscscccscscsssssccsccccccssssccsscssscsscscssccccssssssscssssssscssssscsscsccsssscscccssccssssscscccssscscsscscscsssscscsssssssscscsssssscccsssscssssssssccscccccsccsssscccscscccscsscsscc" />
    <text
       xml:space="preserve"
       style="font-style:normal;font-weight:normal;font-size:16.71127129px;line-height:125%;font-family:sans-serif;letter-spacing:0px;word-spacing:0px;fill:#000000;fill-opacity:1;stroke:none;stroke-width:1px;stroke-linecap:butt;stroke-linejoin:miter;stroke-opacity:1"
       x="404.78607"
       y="296.55447"
       id="text6418-6"
       sodipodi:linespacing="125%"><tspan
         sodipodi:role="line"
         id="tspan6420-4"
         x="404.78607"
         y="296.55447"
         style="-inkscape-font-specification:'Lucida Calligraphy Italic';font-family:'Lucida Calligraphy';font-weight:normal;font-style:italic;font-stretch:normal;font-variant:normal">hw<tspan
   style="font-size:10px;-inkscape-font-specification:'Lucida Calligraphy Italic';font-family:'Lucida Calligraphy';font-weight:normal;font-style:italic;font-stretch:normal;font-variant:normal"
   id="tspan6442-5">1</tspan></tspan></text>
    <path
       style="fill:#006a9e;fill-opacity:1;fill-rule:evenodd;stroke:#0065a6;stroke-width:2;stroke-linecap:butt;stroke-linejoin:miter;stroke-miterlimit:4.80000019;stroke-dasharray:none;stroke-opacity:1;marker-end:url(#Arrow2Lend-3)"
       d="m 478.47742,299.66596 3.48022,-167.65681"
       id="path5319-5"
       inkscape:connector-curvature="0" />
    <text
       xml:space="preserve"
       style="font-style:normal;font-weight:normal;font-size:17.56591225px;line-height:125%;font-family:sans-serif;letter-spacing:0px;word-spacing:0px;fill:#000000;fill-opacity:1;stroke:none;stroke-width:1px;stroke-linecap:butt;stroke-linejoin:miter;stroke-opacity:1"
       x="456.63162"
       y="131.63377"
       id="text6444-0"
       sodipodi:linespacing="125%"><tspan
         sodipodi:role="line"
         id="tspan6446-7"
         x="456.63162"
         y="131.63377">e-</tspan></text>
    <circle
       style="fill:#3262ff;fill-opacity:1;stroke:url(#linearGradient4949-7-6);stroke-width:0.93988442;stroke-miterlimit:4;stroke-dasharray:none;stroke-dashoffset:0;stroke-opacity:0.96499999"
       id="path4943-54-9"
       cx="483.32764"
       cy="119.92341"
       r="7.2729149" />
    <path
       style="fill:#d80000;fill-opacity:1;fill-rule:evenodd;stroke:#d80004;stroke-width:2.05684733;stroke-linecap:butt;stroke-linejoin:miter;stroke-miterlimit:4;stroke-dasharray:none;stroke-opacity:1;marker-end:url(#marker6165-9)"
       d="m 513.1885,229.45647 -24.26458,70.19076"
       id="path6157-6"
       inkscape:connector-curvature="0" />
    <path
       style="fill:#006a9e;fill-opacity:1;fill-rule:evenodd;stroke:#0065a6;stroke-width:1.20106888;stroke-linecap:butt;stroke-linejoin:miter;stroke-miterlimit:4.80000019;stroke-dasharray:none;stroke-opacity:1;marker-end:url(#Arrow2Lend-3-3)"
       d="m 535.47928,214.25888 4.43475,-47.44989"
       id="path5319-5-9"
       inkscape:connector-curvature="0" />
    <circle
       style="fill:#3262ff;fill-opacity:1;stroke:url(#linearGradient4949-7-6-1);stroke-width:0.93988442;stroke-miterlimit:4;stroke-dasharray:none;stroke-dashoffset:0;stroke-opacity:0.96499999"
       id="path4943-54-9-0"
       cx="542.14282"
       cy="155.93364"
       r="7.2729149" />
    <text
       xml:space="preserve"
       style="font-style:normal;font-weight:normal;font-size:15.61626434px;line-height:125%;font-family:sans-serif;letter-spacing:0px;word-spacing:0px;fill:#000000;fill-opacity:1;stroke:none;stroke-width:1px;stroke-linecap:butt;stroke-linejoin:miter;stroke-opacity:1"
       x="553.16669"
       y="149.634"
       id="text8633"
       sodipodi:linespacing="125%"><tspan
         sodipodi:role="line"
         id="tspan8635"
         x="553.16669"
         y="149.634">Auger e-</tspan></text>
    <text
       xml:space="preserve"
       style="font-style:normal;font-weight:normal;font-size:12.99630928px;line-height:125%;font-family:sans-serif;letter-spacing:0px;word-spacing:0px;fill:#000000;fill-opacity:1;stroke:none;stroke-width:1px;stroke-linecap:butt;stroke-linejoin:miter;stroke-opacity:1"
       x="204.63797"
       y="312.59421"
       id="text8865"
       sodipodi:linespacing="125%"><tspan
         sodipodi:role="line"
         id="tspan8867"
         x="204.63797"
         y="312.59421">1s</tspan></text>
    <text
       xml:space="preserve"
       style="font-style:normal;font-weight:normal;font-size:12.99630928px;line-height:125%;font-family:sans-serif;letter-spacing:0px;word-spacing:0px;fill:#000000;fill-opacity:1;stroke:none;stroke-width:1px;stroke-linecap:butt;stroke-linejoin:miter;stroke-opacity:1"
       x="204.63797"
       y="273.58804"
       id="text8865-1"
       sodipodi:linespacing="125%"><tspan
         sodipodi:role="line"
         id="tspan8867-9"
         x="204.63797"
         y="273.58804">2s</tspan></text>
    <text
       xml:space="preserve"
       style="font-style:normal;font-weight:normal;font-size:12.99630928px;line-height:125%;font-family:sans-serif;letter-spacing:0px;word-spacing:0px;fill:#000000;fill-opacity:1;stroke:none;stroke-width:1px;stroke-linecap:butt;stroke-linejoin:miter;stroke-opacity:1"
       x="204.63797"
       y="226.02954"
       id="text8865-7"
       sodipodi:linespacing="125%"><tspan
         sodipodi:role="line"
         id="tspan8867-1"
         x="204.63797"
         y="226.02954">2p</tspan></text>
    <text
       xml:space="preserve"
       style="font-style:normal;font-weight:normal;font-size:12.99630928px;line-height:125%;font-family:sans-serif;letter-spacing:0px;word-spacing:0px;fill:#000000;fill-opacity:1;stroke:none;stroke-width:1px;stroke-linecap:butt;stroke-linejoin:miter;stroke-opacity:1"
       x="554.50281"
       y="314.66742"
       id="text8865-2"
       sodipodi:linespacing="125%"><tspan
         sodipodi:role="line"
         id="tspan8867-4"
         x="554.50281"
         y="314.66742">1s</tspan></text>
    <text
       xml:space="preserve"
       style="font-style:normal;font-weight:normal;font-size:12.99630928px;line-height:125%;font-family:sans-serif;letter-spacing:0px;word-spacing:0px;fill:#000000;fill-opacity:1;stroke:none;stroke-width:1px;stroke-linecap:butt;stroke-linejoin:miter;stroke-opacity:1"
       x="554.50281"
       y="275.66125"
       id="text8865-1-1"
       sodipodi:linespacing="125%"><tspan
         sodipodi:role="line"
         id="tspan8867-9-4"
         x="554.50281"
         y="275.66125">2s</tspan></text>
    <text
       xml:space="preserve"
       style="font-style:normal;font-weight:normal;font-size:12.99630928px;line-height:125%;font-family:sans-serif;letter-spacing:0px;word-spacing:0px;fill:#000000;fill-opacity:1;stroke:none;stroke-width:1px;stroke-linecap:butt;stroke-linejoin:miter;stroke-opacity:1"
       x="554.50281"
       y="228.10277"
       id="text8865-7-6"
       sodipodi:linespacing="125%"><tspan
         sodipodi:role="line"
         id="tspan8867-1-4"
         x="554.50281"
         y="228.10277">2p</tspan></text>
  </g>
</svg>
